<?xml version="1.0" encoding="UTF-8" standalone="no"?>
<svg
   xmlns:dc="http://purl.org/dc/elements/1.1/"
   xmlns:cc="http://creativecommons.org/ns#"
   xmlns:rdf="http://www.w3.org/1999/02/22-rdf-syntax-ns#"
   xmlns:svg="http://www.w3.org/2000/svg"
   xmlns="http://www.w3.org/2000/svg"
   xmlns:xlink="http://www.w3.org/1999/xlink"
   xmlns:sodipodi="http://sodipodi.sourceforge.net/DTD/sodipodi-0.dtd"
   xmlns:inkscape="http://www.inkscape.org/namespaces/inkscape"
   version="1.1"
   id="Layer_1"
   x="0px"
   y="0px"
   width="32px"
   height="32px"
   viewBox="0 0 32 32"
   enable-background="new 0 0 32 32"
   xml:space="preserve"
   sodipodi:docname="icon-video.svg..svg"
   inkscape:version="0.92.4 (5da689c313, 2019-01-14)"><metadata
   id="metadata30"><rdf:RDF><cc:Work
       rdf:about=""><dc:format>image/svg+xml</dc:format><dc:type
         rdf:resource="http://purl.org/dc/dcmitype/StillImage" /><dc:title></dc:title></cc:Work></rdf:RDF></metadata><defs
   id="defs28" /><sodipodi:namedview
   pagecolor="#ffffff"
   bordercolor="#666666"
   borderopacity="1"
   objecttolerance="10"
   gridtolerance="10"
   guidetolerance="10"
   inkscape:pageopacity="0"
   inkscape:pageshadow="2"
   inkscape:window-width="1920"
   inkscape:window-height="1001"
   id="namedview26"
   showgrid="false"
   inkscape:zoom="6.3"
   inkscape:cx="-10.190476"
   inkscape:cy="16"
   inkscape:window-x="-9"
   inkscape:window-y="-9"
   inkscape:window-maximized="1"
   inkscape:current-layer="Layer_1" />
<g
   transform="translate(0 192)"
   id="g23"
   style="fill:#63d1bb;fill-opacity:0.91584158;opacity:1">
  <path
   d="M26-177l6-4v16l-6-4V-177z M24-177v8c0,2.209-1.791,4-4,4H4c-2.209,0-4-1.791-4-4v-8c0-2.209,1.791-4,4-4h10 c0-1.105,0.895-2,2-2v-2H5c-0.553,0-1-0.447-1-1s0.447-1,1-1h12c0.553,0,1,0.447,1,1v3c1.105,0,2,0.895,2,2 C22.209-181,24-179.209,24-177z M12-177H4v8h8V-177z M20-176c0-0.553-0.447-1-1-1h-4c-0.553,0-1,0.447-1,1s0.447,1,1,1h4 C19.553-175,20-175.447,20-176z"
   id="path21"
   style="fill:#63d1bb;fill-opacity:0.91584158" />
</g>
<path
   style="fill:#63d1bb;opacity:0;fill-opacity:0"
   d="M 2.6056317,26.65519 C 1.8280646,26.378051 0.81307162,25.413762 0.42900878,24.587302 0.16160351,24.011875 0.13362954,23.489283 0.13047016,19.010189 L 0.12698413,14.067997 0.57027587,13.21944 C 1.1180136,12.17095 2.0707573,11.419356 3.143846,11.18922 3.6322603,11.084473 5.9513078,11.015873 9.0038446,11.015873 h 5.0517114 l 0.09605,-0.480249 c 0.123,-0.6149969 0.753149,-1.2451462 1.368146,-1.3681456 C 15.998379,9.0717527 16,9.067746 16,7.9801587 V 6.8888889 h -5.689684 c -5.3104884,0 -5.7071928,-0.019346 -5.9523814,-0.2902764 C 4.0268679,6.232788 4.0211833,5.715778 4.3446713,5.3922903 4.5631878,5.1737737 5.3880987,5.1428571 11,5.1428571 c 5.611902,0 6.436813,0.030917 6.655329,0.2494332 0.196325,0.1963254 0.249433,0.6187727 0.249433,1.984127 0,1.7298737 0.0011,1.7346938 0.384646,1.7346938 0.526129,0 1.302152,0.688771 1.520113,1.3491959 0.149965,0.454399 0.277247,0.562766 0.764563,0.65094 1.207249,0.218437 2.314416,1.049318 2.939826,2.206213 0.331446,0.613117 0.343233,0.809354 0.343233,5.714286 0,4.901705 -0.01198,5.101573 -0.342606,5.714286 -0.448507,0.831176 -1.078312,1.413906 -1.958981,1.812554 -0.691396,0.31297 -0.996605,0.323219 -9.52381,0.319851 -7.09455,-0.0028 -8.9295571,-0.04626 -9.4261143,-0.223247 z M 12.031746,19.031746 V 14.984127 H 7.984127 3.9365079 v 4.047619 4.047619 h 4.0476191 4.047619 z m 7.817327,-2.480925 c 0.333297,-0.446768 0.285078,-0.901931 -0.140651,-1.327659 -0.192812,-0.192813 -0.7262,-0.239035 -2.758378,-0.239035 -2.42348,0 -2.528747,0.01342 -2.76644,0.352779 -0.338121,0.482734 -0.309896,1.012993 0.07437,1.397263 0.299504,0.299504 0.490869,0.318485 2.800575,0.277778 2.470194,-0.04354 2.480225,-0.04519 2.790519,-0.461126 z"
   id="path32"
   inkscape:connector-curvature="0" /><path
   style="fill:#63d1bb;stroke-width:0.15873016;opacity:0.63;fill-opacity:0"
   d="M 28.81746,24.813284 26,22.916222 l 0.0042,-3.926365 0.0042,-3.926365 2.932295,-1.944869 2.932295,-1.94487 v 7.778203 c 0,4.278012 -0.05357,7.773745 -0.119048,7.768297 -0.06548,-0.0054 -1.386905,-0.863585 -2.936508,-1.906969 z"
   id="path34"
   inkscape:connector-curvature="0" /><path
   style="opacity:0.62999998;fill:#63d1bb;fill-opacity:0;stroke-width:0.15873016"
   d="M 4.9539717,26.751278 C 2.6609913,26.655084 2.5310919,26.631614 1.9111671,26.201535 1.5550037,25.954443 1.0625016,25.462095 0.81671798,25.107429 0.24404305,24.281059 0.15274737,23.333232 0.13976716,18.079365 l -0.009804,-3.968254 0.46829697,-0.816498 C 1.1441505,12.342827 1.960089,11.61996 2.7918586,11.351231 3.1733848,11.227968 5.2597549,11.126946 8.713149,11.064522 l 5.332197,-0.09638 0.302724,-0.650735 C 14.570979,9.838236 14.828656,9.5840498 15.325397,9.3533143 L 16,9.0399621 V 7.9809883 6.9220144 L 10.404762,6.8532957 C 7.327381,6.8155003 4.6915625,6.7316775 4.5473876,6.6670225 4.2161659,6.5184871 4.0663798,5.9695598 4.2589078,5.609818 4.3826802,5.3785472 4.7562827,5.315641 6.5920283,5.2169738 9.6057611,5.0549923 17.399675,5.2091989 17.625759,5.4352818 c 0.09703,0.097029 0.20782,0.9584563 0.247673,1.9256972 0.06453,1.56629 0.102733,1.7501321 0.363655,1.7501321 0.400094,0 1.331553,0.8470241 1.573319,1.4307029 0.156,0.376618 0.348354,0.517458 0.894569,0.654997 0.956114,0.240752 1.991566,0.961228 2.537,1.765263 l 0.456438,0.672847 v 5.409181 5.409181 l -0.469732,0.622565 c -0.603248,0.799522 -0.807497,0.967314 -1.664219,1.367171 -0.674362,0.314746 -1.002408,0.330971 -7.460318,0.368984 -3.715216,0.02187 -7.8327932,-0.0055 -9.1501723,-0.06073 z M 12.031746,19.031746 V 14.984127 H 7.984127 3.9365079 v 4.047619 4.047619 h 4.0476191 4.047619 z m 7.705627,-2.373737 c 0.472368,-0.472368 0.496805,-0.931768 0.07215,-1.356422 -0.290911,-0.290911 -0.5291,-0.31746 -2.848143,-0.31746 -2.435195,0 -2.540005,0.01331 -2.777777,0.352779 -0.337035,0.481184 -0.310192,1.012697 0.07036,1.393253 0.289327,0.289327 0.529101,0.31746 2.705627,0.31746 2.323946,0 2.398646,-0.01048 2.777778,-0.38961 z"
   id="path4560"
   inkscape:connector-curvature="0" /><path
   style="opacity:0.62999998;fill:#63d1bb;fill-opacity:0;stroke-width:0.15873016"
   d="M 4.9539717,26.751278 C 2.6609913,26.655084 2.5310919,26.631614 1.9111671,26.201535 1.5550037,25.954443 1.0625016,25.462095 0.81671798,25.107429 0.24404305,24.281059 0.15274737,23.333232 0.13976716,18.079365 l -0.009804,-3.968254 0.46829697,-0.816498 C 1.1441505,12.342827 1.960089,11.61996 2.7918586,11.351231 3.1733848,11.227968 5.2597549,11.126946 8.713149,11.064522 l 5.332197,-0.09638 0.302724,-0.650735 C 14.570979,9.838236 14.828656,9.5840498 15.325397,9.3533143 L 16,9.0399621 V 7.9809883 6.9220144 L 10.404762,6.8532957 C 7.327381,6.8155003 4.6915625,6.7316775 4.5473876,6.6670225 4.2161659,6.5184871 4.0663798,5.9695598 4.2589078,5.609818 4.3826802,5.3785472 4.7562827,5.315641 6.5920283,5.2169738 9.6057611,5.0549923 17.399675,5.2091989 17.625759,5.4352818 c 0.09703,0.097029 0.20782,0.9584563 0.247673,1.9256972 0.06453,1.56629 0.102733,1.7501321 0.363655,1.7501321 0.400094,0 1.331553,0.8470241 1.573319,1.4307029 0.156,0.376618 0.348354,0.517458 0.894569,0.654997 0.956114,0.240752 1.991566,0.961228 2.537,1.765263 l 0.456438,0.672847 v 5.409181 5.409181 l -0.469732,0.622565 c -0.603248,0.799522 -0.807497,0.967314 -1.664219,1.367171 -0.674362,0.314746 -1.002408,0.330971 -7.460318,0.368984 -3.715216,0.02187 -7.8327932,-0.0055 -9.1501723,-0.06073 z M 12.031746,19.031746 V 14.984127 H 7.984127 3.9365079 v 4.047619 4.047619 h 4.0476191 4.047619 z m 7.705627,-2.373737 c 0.472368,-0.472368 0.496805,-0.931768 0.07215,-1.356422 -0.290911,-0.290911 -0.5291,-0.31746 -2.848143,-0.31746 -2.435195,0 -2.540005,0.01331 -2.777777,0.352779 -0.337035,0.481184 -0.310192,1.012697 0.07036,1.393253 0.289327,0.289327 0.529101,0.31746 2.705627,0.31746 2.323946,0 2.398646,-0.01048 2.777778,-0.38961 z"
   id="path4562"
   inkscape:connector-curvature="0" /><path
   style="opacity:0.62999998;fill:#63d1bb;fill-opacity:0;stroke-width:0.15873016"
   d="M 4.9539717,26.751278 C 2.6609913,26.655084 2.5310919,26.631614 1.9111671,26.201535 1.5550037,25.954443 1.0625016,25.462095 0.81671798,25.107429 0.24404305,24.281059 0.15274737,23.333232 0.13976716,18.079365 l -0.009804,-3.968254 0.46829697,-0.816498 C 1.1441505,12.342827 1.960089,11.61996 2.7918586,11.351231 3.1733848,11.227968 5.2597549,11.126946 8.713149,11.064522 l 5.332197,-0.09638 0.302724,-0.650735 C 14.570979,9.838236 14.828656,9.5840498 15.325397,9.3533143 L 16,9.0399621 V 7.9809883 6.9220144 L 10.404762,6.8532957 C 7.327381,6.8155003 4.6915625,6.7316775 4.5473876,6.6670225 4.2161659,6.5184871 4.0663798,5.9695598 4.2589078,5.609818 4.3826802,5.3785472 4.7562827,5.315641 6.5920283,5.2169738 9.6057611,5.0549923 17.399675,5.2091989 17.625759,5.4352818 c 0.09703,0.097029 0.20782,0.9584563 0.247673,1.9256972 0.06453,1.56629 0.102733,1.7501321 0.363655,1.7501321 0.400094,0 1.331553,0.8470241 1.573319,1.4307029 0.156,0.376618 0.348354,0.517458 0.894569,0.654997 0.956114,0.240752 1.991566,0.961228 2.537,1.765263 l 0.456438,0.672847 v 5.409181 5.409181 l -0.469732,0.622565 c -0.603248,0.799522 -0.807497,0.967314 -1.664219,1.367171 -0.674362,0.314746 -1.002408,0.330971 -7.460318,0.368984 -3.715216,0.02187 -7.8327932,-0.0055 -9.1501723,-0.06073 z M 12.031746,19.031746 V 14.984127 H 7.984127 3.9365079 v 4.047619 4.047619 h 4.0476191 4.047619 z m 7.705627,-2.373737 c 0.472368,-0.472368 0.496805,-0.931768 0.07215,-1.356422 -0.290911,-0.290911 -0.5291,-0.31746 -2.848143,-0.31746 -2.435195,0 -2.540005,0.01331 -2.777777,0.352779 -0.337035,0.481184 -0.310192,1.012697 0.07036,1.393253 0.289327,0.289327 0.529101,0.31746 2.705627,0.31746 2.323946,0 2.398646,-0.01048 2.777778,-0.38961 z"
   id="path4564"
   inkscape:connector-curvature="0" /><path
   style="opacity:0.62999998;fill:#63d1bb;fill-opacity:0;stroke-width:0.15873016"
   d="M 4.9539717,26.751278 C 2.6609913,26.655084 2.5310919,26.631614 1.9111671,26.201535 1.5550037,25.954443 1.0625016,25.462095 0.81671798,25.107429 0.24404305,24.281059 0.15274737,23.333232 0.13976716,18.079365 l -0.009804,-3.968254 0.46829697,-0.816498 C 1.1441505,12.342827 1.960089,11.61996 2.7918586,11.351231 3.1733848,11.227968 5.2597549,11.126946 8.713149,11.064522 l 5.332197,-0.09638 0.302724,-0.650735 C 14.570979,9.838236 14.828656,9.5840498 15.325397,9.3533143 L 16,9.0399621 V 7.9809883 6.9220144 L 10.404762,6.8532957 C 7.327381,6.8155003 4.6915625,6.7316775 4.5473876,6.6670225 4.2161659,6.5184871 4.0663798,5.9695598 4.2589078,5.609818 4.3826802,5.3785472 4.7562827,5.315641 6.5920283,5.2169738 9.6057611,5.0549923 17.399675,5.2091989 17.625759,5.4352818 c 0.09703,0.097029 0.20782,0.9584563 0.247673,1.9256972 0.06453,1.56629 0.102733,1.7501321 0.363655,1.7501321 0.400094,0 1.331553,0.8470241 1.573319,1.4307029 0.156,0.376618 0.348354,0.517458 0.894569,0.654997 0.956114,0.240752 1.991566,0.961228 2.537,1.765263 l 0.456438,0.672847 v 5.409181 5.409181 l -0.469732,0.622565 c -0.603248,0.799522 -0.807497,0.967314 -1.664219,1.367171 -0.674362,0.314746 -1.002408,0.330971 -7.460318,0.368984 -3.715216,0.02187 -7.8327932,-0.0055 -9.1501723,-0.06073 z M 12.031746,19.031746 V 14.984127 H 7.984127 3.9365079 v 4.047619 4.047619 h 4.0476191 4.047619 z m 7.705627,-2.373737 c 0.472368,-0.472368 0.496805,-0.931768 0.07215,-1.356422 -0.290911,-0.290911 -0.5291,-0.31746 -2.848143,-0.31746 -2.435195,0 -2.540005,0.01331 -2.777777,0.352779 -0.337035,0.481184 -0.310192,1.012697 0.07036,1.393253 0.289327,0.289327 0.529101,0.31746 2.705627,0.31746 2.323946,0 2.398646,-0.01048 2.777778,-0.38961 z"
   id="path4566"
   inkscape:connector-curvature="0" /><path
   style="opacity:0.62999998;fill:#63d1bb;fill-opacity:0;stroke-width:0.15873016"
   d="M 28.81746,24.813284 26,22.916222 l 0.0042,-3.926365 0.0042,-3.926365 2.932295,-1.944869 2.932295,-1.94487 v 7.778203 c 0,4.278012 -0.05357,7.773745 -0.119048,7.768297 -0.06548,-0.0054 -1.386905,-0.863585 -2.936508,-1.906969 z"
   id="path4568"
   inkscape:connector-curvature="0" /><path
   style="opacity:0.62999998;fill:#63d1bb;fill-opacity:0;stroke-width:0.15873016"
   d="M 28.81746,24.813284 26,22.916222 l 0.0042,-3.926365 0.0042,-3.926365 2.932295,-1.944869 2.932295,-1.94487 v 7.778203 c 0,4.278012 -0.05357,7.773745 -0.119048,7.768297 -0.06548,-0.0054 -1.386905,-0.863585 -2.936508,-1.906969 z"
   id="path4570"
   inkscape:connector-curvature="0" /><path
   style="opacity:0;fill:#63d1bb;fill-opacity:0;stroke-width:0.15873016"
   d="M 4.9539717,26.751278 C 2.6609913,26.655084 2.5310919,26.631614 1.9111671,26.201535 1.5550037,25.954443 1.0625016,25.462095 0.81671798,25.107429 0.24404305,24.281059 0.15274737,23.333232 0.13976716,18.079365 l -0.009804,-3.968254 0.46829697,-0.816498 C 1.1441505,12.342827 1.960089,11.61996 2.7918586,11.351231 3.1733848,11.227968 5.2597549,11.126946 8.713149,11.064522 l 5.332197,-0.09638 0.302724,-0.650735 C 14.570979,9.838236 14.828656,9.5840498 15.325397,9.3533143 L 16,9.0399621 V 7.9809883 6.9220144 L 10.404762,6.8532957 C 7.327381,6.8155003 4.6915625,6.7316775 4.5473876,6.6670225 4.2161659,6.5184871 4.0663798,5.9695598 4.2589078,5.609818 4.3826802,5.3785472 4.7562827,5.315641 6.5920283,5.2169738 9.6057611,5.0549923 17.399675,5.2091989 17.625759,5.4352818 c 0.09703,0.097029 0.20782,0.9584563 0.247673,1.9256972 0.06453,1.56629 0.102733,1.7501321 0.363655,1.7501321 0.400094,0 1.331553,0.8470241 1.573319,1.4307029 0.156,0.376618 0.348354,0.517458 0.894569,0.654997 0.956114,0.240752 1.991566,0.961228 2.537,1.765263 l 0.456438,0.672847 v 5.409181 5.409181 l -0.469732,0.622565 c -0.603248,0.799522 -0.807497,0.967314 -1.664219,1.367171 -0.674362,0.314746 -1.002408,0.330971 -7.460318,0.368984 -3.715216,0.02187 -7.8327932,-0.0055 -9.1501723,-0.06073 z M 12.031746,19.031746 V 14.984127 H 7.984127 3.9365079 v 4.047619 4.047619 h 4.0476191 4.047619 z m 7.705627,-2.373737 c 0.472368,-0.472368 0.496805,-0.931768 0.07215,-1.356422 -0.290911,-0.290911 -0.5291,-0.31746 -2.848143,-0.31746 -2.435195,0 -2.540005,0.01331 -2.777777,0.352779 -0.337035,0.481184 -0.310192,1.012697 0.07036,1.393253 0.289327,0.289327 0.529101,0.31746 2.705627,0.31746 2.323946,0 2.398646,-0.01048 2.777778,-0.38961 z"
   id="path5116"
   inkscape:connector-curvature="0" /><path
   style="opacity:0;fill:#63d1bb;fill-opacity:0;stroke-width:0.15873016"
   d="M 2.6056317,26.65519 C 1.8280646,26.378051 0.81307162,25.413762 0.42900878,24.587302 0.16160351,24.011875 0.13362954,23.489283 0.13047016,19.010189 L 0.12698413,14.067997 0.57027587,13.21944 C 1.1180136,12.17095 2.0707573,11.419356 3.143846,11.18922 3.6322603,11.084473 5.9513078,11.015873 9.0038446,11.015873 h 5.0517114 l 0.09605,-0.480249 c 0.123,-0.6149969 0.753149,-1.2451462 1.368146,-1.3681456 C 15.998379,9.0717527 16,9.067746 16,7.9801587 V 6.8888889 h -5.689684 c -5.3104884,0 -5.7071928,-0.019346 -5.9523814,-0.2902764 C 4.0268679,6.232788 4.0211833,5.715778 4.3446713,5.3922903 4.5631878,5.1737737 5.3880987,5.1428571 11,5.1428571 c 5.611902,0 6.436813,0.030917 6.655329,0.2494332 0.196325,0.1963254 0.249433,0.6187727 0.249433,1.984127 0,1.7298737 0.0011,1.7346938 0.384646,1.7346938 0.526129,0 1.302152,0.688771 1.520113,1.3491959 0.149965,0.454399 0.277247,0.562766 0.764563,0.65094 1.207249,0.218437 2.314416,1.049318 2.939826,2.206213 0.331446,0.613117 0.343233,0.809354 0.343233,5.714286 0,4.901705 -0.01198,5.101573 -0.342606,5.714286 -0.448507,0.831176 -1.078312,1.413906 -1.958981,1.812554 -0.691396,0.31297 -0.996605,0.323219 -9.52381,0.319851 -7.09455,-0.0028 -8.9295571,-0.04626 -9.4261143,-0.223247 z M 12.031746,19.031746 V 14.984127 H 7.984127 3.9365079 v 4.047619 4.047619 h 4.0476191 4.047619 z m 7.817327,-2.480925 c 0.333297,-0.446768 0.285078,-0.901931 -0.140651,-1.327659 -0.192812,-0.192813 -0.7262,-0.239035 -2.758378,-0.239035 -2.42348,0 -2.528747,0.01342 -2.76644,0.352779 -0.338121,0.482734 -0.309896,1.012993 0.07437,1.397263 0.299504,0.299504 0.490869,0.318485 2.800575,0.277778 2.470194,-0.04354 2.480225,-0.04519 2.790519,-0.461126 z"
   id="path5118"
   inkscape:connector-curvature="0" /><path
   style="opacity:0;fill:#63d1bb;fill-opacity:0;stroke-width:0.15873016"
   d="M 2.6056317,26.65519 C 1.8280646,26.378051 0.81307162,25.413762 0.42900878,24.587302 0.16160351,24.011875 0.13362954,23.489283 0.13047016,19.010189 L 0.12698413,14.067997 0.57027587,13.21944 C 1.1180136,12.17095 2.0707573,11.419356 3.143846,11.18922 3.6322603,11.084473 5.9513078,11.015873 9.0038446,11.015873 h 5.0517114 l 0.09605,-0.480249 c 0.123,-0.6149969 0.753149,-1.2451462 1.368146,-1.3681456 C 15.998379,9.0717527 16,9.067746 16,7.9801587 V 6.8888889 h -5.689684 c -5.3104884,0 -5.7071928,-0.019346 -5.9523814,-0.2902764 C 4.0268679,6.232788 4.0211833,5.715778 4.3446713,5.3922903 4.5631878,5.1737737 5.3880987,5.1428571 11,5.1428571 c 5.611902,0 6.436813,0.030917 6.655329,0.2494332 0.196325,0.1963254 0.249433,0.6187727 0.249433,1.984127 0,1.7298737 0.0011,1.7346938 0.384646,1.7346938 0.526129,0 1.302152,0.688771 1.520113,1.3491959 0.149965,0.454399 0.277247,0.562766 0.764563,0.65094 1.207249,0.218437 2.314416,1.049318 2.939826,2.206213 0.331446,0.613117 0.343233,0.809354 0.343233,5.714286 0,4.901705 -0.01198,5.101573 -0.342606,5.714286 -0.448507,0.831176 -1.078312,1.413906 -1.958981,1.812554 -0.691396,0.31297 -0.996605,0.323219 -9.52381,0.319851 -7.09455,-0.0028 -8.9295571,-0.04626 -9.4261143,-0.223247 z M 12.031746,19.031746 V 14.984127 H 7.984127 3.9365079 v 4.047619 4.047619 h 4.0476191 4.047619 z m 7.817327,-2.480925 c 0.333297,-0.446768 0.285078,-0.901931 -0.140651,-1.327659 -0.192812,-0.192813 -0.7262,-0.239035 -2.758378,-0.239035 -2.42348,0 -2.528747,0.01342 -2.76644,0.352779 -0.338121,0.482734 -0.309896,1.012993 0.07437,1.397263 0.299504,0.299504 0.490869,0.318485 2.800575,0.277778 2.470194,-0.04354 2.480225,-0.04519 2.790519,-0.461126 z"
   id="path5120"
   inkscape:connector-curvature="0" /><path
   style="opacity:0;fill:#63d1bb;fill-opacity:0;stroke-width:0.15873016"
   d="M 2.6056317,26.65519 C 1.8280646,26.378051 0.81307162,25.413762 0.42900878,24.587302 0.16160351,24.011875 0.13362954,23.489283 0.13047016,19.010189 L 0.12698413,14.067997 0.57027587,13.21944 C 1.1180136,12.17095 2.0707573,11.419356 3.143846,11.18922 3.6322603,11.084473 5.9513078,11.015873 9.0038446,11.015873 h 5.0517114 l 0.09605,-0.480249 c 0.123,-0.6149969 0.753149,-1.2451462 1.368146,-1.3681456 C 15.998379,9.0717527 16,9.067746 16,7.9801587 V 6.8888889 h -5.689684 c -5.3104884,0 -5.7071928,-0.019346 -5.9523814,-0.2902764 C 4.0268679,6.232788 4.0211833,5.715778 4.3446713,5.3922903 4.5631878,5.1737737 5.3880987,5.1428571 11,5.1428571 c 5.611902,0 6.436813,0.030917 6.655329,0.2494332 0.196325,0.1963254 0.249433,0.6187727 0.249433,1.984127 0,1.7298737 0.0011,1.7346938 0.384646,1.7346938 0.526129,0 1.302152,0.688771 1.520113,1.3491959 0.149965,0.454399 0.277247,0.562766 0.764563,0.65094 1.207249,0.218437 2.314416,1.049318 2.939826,2.206213 0.331446,0.613117 0.343233,0.809354 0.343233,5.714286 0,4.901705 -0.01198,5.101573 -0.342606,5.714286 -0.448507,0.831176 -1.078312,1.413906 -1.958981,1.812554 -0.691396,0.31297 -0.996605,0.323219 -9.52381,0.319851 -7.09455,-0.0028 -8.9295571,-0.04626 -9.4261143,-0.223247 z M 12.031746,19.031746 V 14.984127 H 7.984127 3.9365079 v 4.047619 4.047619 h 4.0476191 4.047619 z m 7.817327,-2.480925 c 0.333297,-0.446768 0.285078,-0.901931 -0.140651,-1.327659 -0.192812,-0.192813 -0.7262,-0.239035 -2.758378,-0.239035 -2.42348,0 -2.528747,0.01342 -2.76644,0.352779 -0.338121,0.482734 -0.309896,1.012993 0.07437,1.397263 0.299504,0.299504 0.490869,0.318485 2.800575,0.277778 2.470194,-0.04354 2.480225,-0.04519 2.790519,-0.461126 z"
   id="path5122"
   inkscape:connector-curvature="0" /><path
   style="opacity:0;fill:#63d1bb;fill-opacity:0;stroke-width:0.15873016"
   d="M 2.6056317,26.65519 C 1.8280646,26.378051 0.81307162,25.413762 0.42900878,24.587302 0.16160351,24.011875 0.13362954,23.489283 0.13047016,19.010189 L 0.12698413,14.067997 0.57027587,13.21944 C 1.1180136,12.17095 2.0707573,11.419356 3.143846,11.18922 3.6322603,11.084473 5.9513078,11.015873 9.0038446,11.015873 h 5.0517114 l 0.09605,-0.480249 c 0.123,-0.6149969 0.753149,-1.2451462 1.368146,-1.3681456 C 15.998379,9.0717527 16,9.067746 16,7.9801587 V 6.8888889 h -5.689684 c -5.3104884,0 -5.7071928,-0.019346 -5.9523814,-0.2902764 C 4.0268679,6.232788 4.0211833,5.715778 4.3446713,5.3922903 4.5631878,5.1737737 5.3880987,5.1428571 11,5.1428571 c 5.611902,0 6.436813,0.030917 6.655329,0.2494332 0.196325,0.1963254 0.249433,0.6187727 0.249433,1.984127 0,1.7298737 0.0011,1.7346938 0.384646,1.7346938 0.526129,0 1.302152,0.688771 1.520113,1.3491959 0.149965,0.454399 0.277247,0.562766 0.764563,0.65094 1.207249,0.218437 2.314416,1.049318 2.939826,2.206213 0.331446,0.613117 0.343233,0.809354 0.343233,5.714286 0,4.901705 -0.01198,5.101573 -0.342606,5.714286 -0.448507,0.831176 -1.078312,1.413906 -1.958981,1.812554 -0.691396,0.31297 -0.996605,0.323219 -9.52381,0.319851 -7.09455,-0.0028 -8.9295571,-0.04626 -9.4261143,-0.223247 z M 12.031746,19.031746 V 14.984127 H 7.984127 3.9365079 v 4.047619 4.047619 h 4.0476191 4.047619 z m 7.817327,-2.480925 c 0.333297,-0.446768 0.285078,-0.901931 -0.140651,-1.327659 -0.192812,-0.192813 -0.7262,-0.239035 -2.758378,-0.239035 -2.42348,0 -2.528747,0.01342 -2.76644,0.352779 -0.338121,0.482734 -0.309896,1.012993 0.07437,1.397263 0.299504,0.299504 0.490869,0.318485 2.800575,0.277778 2.470194,-0.04354 2.480225,-0.04519 2.790519,-0.461126 z"
   id="path5124"
   inkscape:connector-curvature="0" /><path
   style="opacity:0;fill:#63d1bb;fill-opacity:0;stroke-width:0.15873016"
   d="M 2.6056317,26.65519 C 1.8280646,26.378051 0.81307162,25.413762 0.42900878,24.587302 0.16160351,24.011875 0.13362954,23.489283 0.13047016,19.010189 L 0.12698413,14.067997 0.57027587,13.21944 C 1.1180136,12.17095 2.0707573,11.419356 3.143846,11.18922 3.6322603,11.084473 5.9513078,11.015873 9.0038446,11.015873 h 5.0517114 l 0.09605,-0.480249 c 0.123,-0.6149969 0.753149,-1.2451462 1.368146,-1.3681456 C 15.998379,9.0717527 16,9.067746 16,7.9801587 V 6.8888889 h -5.689684 c -5.3104884,0 -5.7071928,-0.019346 -5.9523814,-0.2902764 C 4.0268679,6.232788 4.0211833,5.715778 4.3446713,5.3922903 4.5631878,5.1737737 5.3880987,5.1428571 11,5.1428571 c 5.611902,0 6.436813,0.030917 6.655329,0.2494332 0.196325,0.1963254 0.249433,0.6187727 0.249433,1.984127 0,1.7298737 0.0011,1.7346938 0.384646,1.7346938 0.526129,0 1.302152,0.688771 1.520113,1.3491959 0.149965,0.454399 0.277247,0.562766 0.764563,0.65094 1.207249,0.218437 2.314416,1.049318 2.939826,2.206213 0.331446,0.613117 0.343233,0.809354 0.343233,5.714286 0,4.901705 -0.01198,5.101573 -0.342606,5.714286 -0.448507,0.831176 -1.078312,1.413906 -1.958981,1.812554 -0.691396,0.31297 -0.996605,0.323219 -9.52381,0.319851 -7.09455,-0.0028 -8.9295571,-0.04626 -9.4261143,-0.223247 z M 12.031746,19.031746 V 14.984127 H 7.984127 3.9365079 v 4.047619 4.047619 h 4.0476191 4.047619 z m 7.817327,-2.480925 c 0.333297,-0.446768 0.285078,-0.901931 -0.140651,-1.327659 -0.192812,-0.192813 -0.7262,-0.239035 -2.758378,-0.239035 -2.42348,0 -2.528747,0.01342 -2.76644,0.352779 -0.338121,0.482734 -0.309896,1.012993 0.07437,1.397263 0.299504,0.299504 0.490869,0.318485 2.800575,0.277778 2.470194,-0.04354 2.480225,-0.04519 2.790519,-0.461126 z"
   id="path5126"
   inkscape:connector-curvature="0" /><path
   style="opacity:0;fill:#63d1bb;fill-opacity:0;stroke-width:0.15873016"
   d="M 2.6056317,26.65519 C 1.8280646,26.378051 0.81307162,25.413762 0.42900878,24.587302 0.16160351,24.011875 0.13362954,23.489283 0.13047016,19.010189 L 0.12698413,14.067997 0.57027587,13.21944 C 1.1180136,12.17095 2.0707573,11.419356 3.143846,11.18922 3.6322603,11.084473 5.9513078,11.015873 9.0038446,11.015873 h 5.0517114 l 0.09605,-0.480249 c 0.123,-0.6149969 0.753149,-1.2451462 1.368146,-1.3681456 C 15.998379,9.0717527 16,9.067746 16,7.9801587 V 6.8888889 h -5.689684 c -5.3104884,0 -5.7071928,-0.019346 -5.9523814,-0.2902764 C 4.0268679,6.232788 4.0211833,5.715778 4.3446713,5.3922903 4.5631878,5.1737737 5.3880987,5.1428571 11,5.1428571 c 5.611902,0 6.436813,0.030917 6.655329,0.2494332 0.196325,0.1963254 0.249433,0.6187727 0.249433,1.984127 0,1.7298737 0.0011,1.7346938 0.384646,1.7346938 0.526129,0 1.302152,0.688771 1.520113,1.3491959 0.149965,0.454399 0.277247,0.562766 0.764563,0.65094 1.207249,0.218437 2.314416,1.049318 2.939826,2.206213 0.331446,0.613117 0.343233,0.809354 0.343233,5.714286 0,4.901705 -0.01198,5.101573 -0.342606,5.714286 -0.448507,0.831176 -1.078312,1.413906 -1.958981,1.812554 -0.691396,0.31297 -0.996605,0.323219 -9.52381,0.319851 -7.09455,-0.0028 -8.9295571,-0.04626 -9.4261143,-0.223247 z M 12.031746,19.031746 V 14.984127 H 7.984127 3.9365079 v 4.047619 4.047619 h 4.0476191 4.047619 z m 7.817327,-2.480925 c 0.333297,-0.446768 0.285078,-0.901931 -0.140651,-1.327659 -0.192812,-0.192813 -0.7262,-0.239035 -2.758378,-0.239035 -2.42348,0 -2.528747,0.01342 -2.76644,0.352779 -0.338121,0.482734 -0.309896,1.012993 0.07437,1.397263 0.299504,0.299504 0.490869,0.318485 2.800575,0.277778 2.470194,-0.04354 2.480225,-0.04519 2.790519,-0.461126 z"
   id="path5128"
   inkscape:connector-curvature="0" /><path
   style="opacity:0;fill:#63d1bb;fill-opacity:0;stroke-width:0.15873016"
   d="M 2.6056317,26.65519 C 1.8280646,26.378051 0.81307162,25.413762 0.42900878,24.587302 0.16160351,24.011875 0.13362954,23.489283 0.13047016,19.010189 L 0.12698413,14.067997 0.57027587,13.21944 C 1.1180136,12.17095 2.0707573,11.419356 3.143846,11.18922 3.6322603,11.084473 5.9513078,11.015873 9.0038446,11.015873 h 5.0517114 l 0.09605,-0.480249 c 0.123,-0.6149969 0.753149,-1.2451462 1.368146,-1.3681456 C 15.998379,9.0717527 16,9.067746 16,7.9801587 V 6.8888889 h -5.689684 c -5.3104884,0 -5.7071928,-0.019346 -5.9523814,-0.2902764 C 4.0268679,6.232788 4.0211833,5.715778 4.3446713,5.3922903 4.5631878,5.1737737 5.3880987,5.1428571 11,5.1428571 c 5.611902,0 6.436813,0.030917 6.655329,0.2494332 0.196325,0.1963254 0.249433,0.6187727 0.249433,1.984127 0,1.7298737 0.0011,1.7346938 0.384646,1.7346938 0.526129,0 1.302152,0.688771 1.520113,1.3491959 0.149965,0.454399 0.277247,0.562766 0.764563,0.65094 1.207249,0.218437 2.314416,1.049318 2.939826,2.206213 0.331446,0.613117 0.343233,0.809354 0.343233,5.714286 0,4.901705 -0.01198,5.101573 -0.342606,5.714286 -0.448507,0.831176 -1.078312,1.413906 -1.958981,1.812554 -0.691396,0.31297 -0.996605,0.323219 -9.52381,0.319851 -7.09455,-0.0028 -8.9295571,-0.04626 -9.4261143,-0.223247 z M 12.031746,19.031746 V 14.984127 H 7.984127 3.9365079 v 4.047619 4.047619 h 4.0476191 4.047619 z m 7.817327,-2.480925 c 0.333297,-0.446768 0.285078,-0.901931 -0.140651,-1.327659 -0.192812,-0.192813 -0.7262,-0.239035 -2.758378,-0.239035 -2.42348,0 -2.528747,0.01342 -2.76644,0.352779 -0.338121,0.482734 -0.309896,1.012993 0.07437,1.397263 0.299504,0.299504 0.490869,0.318485 2.800575,0.277778 2.470194,-0.04354 2.480225,-0.04519 2.790519,-0.461126 z"
   id="path5130"
   inkscape:connector-curvature="0" /><path
   style="opacity:0;fill:#63d1bb;fill-opacity:0;stroke-width:0.15873016"
   d="M 28.81746,24.813284 26,22.916222 l 0.0042,-3.926365 0.0042,-3.926365 2.932295,-1.944869 2.932295,-1.94487 v 7.778203 c 0,4.278012 -0.05357,7.773745 -0.119048,7.768297 -0.06548,-0.0054 -1.386905,-0.863585 -2.936508,-1.906969 z"
   id="path5132"
   inkscape:connector-curvature="0" /><path
   style="opacity:0;fill:#63d1bb;fill-opacity:0;stroke-width:0.15873016"
   d="M 28.81746,24.813284 26,22.916222 l 0.0042,-3.926365 0.0042,-3.926365 2.932295,-1.944869 2.932295,-1.94487 v 7.778203 c 0,4.278012 -0.05357,7.773745 -0.119048,7.768297 -0.06548,-0.0054 -1.386905,-0.863585 -2.936508,-1.906969 z"
   id="path5134"
   inkscape:connector-curvature="0" /><path
   style="opacity:0;fill:#63d1bb;fill-opacity:0;stroke-width:0.15873016"
   d="M 28.81746,24.813284 26,22.916222 l 0.0042,-3.926365 0.0042,-3.926365 2.932295,-1.944869 2.932295,-1.94487 v 7.778203 c 0,4.278012 -0.05357,7.773745 -0.119048,7.768297 -0.06548,-0.0054 -1.386905,-0.863585 -2.936508,-1.906969 z"
   id="path5136"
   inkscape:connector-curvature="0" /><path
   style="opacity:0;fill:#800000;fill-opacity:0;stroke-width:0.15873016"
   d="M 2.6056317,26.65519 C 1.8280646,26.378051 0.81307162,25.413762 0.42900878,24.587302 0.16160351,24.011875 0.13362954,23.489283 0.13047016,19.010189 L 0.12698413,14.067997 0.57027587,13.21944 C 1.1180136,12.17095 2.0707573,11.419356 3.143846,11.18922 3.6322603,11.084473 5.9513078,11.015873 9.0038446,11.015873 h 5.0517114 l 0.09605,-0.480249 c 0.123,-0.6149969 0.753149,-1.2451462 1.368146,-1.3681456 C 15.998379,9.0717527 16,9.067746 16,7.9801587 V 6.8888889 h -5.689684 c -5.3104884,0 -5.7071928,-0.019346 -5.9523814,-0.2902764 C 4.0268679,6.232788 4.0211833,5.715778 4.3446713,5.3922903 4.5631878,5.1737737 5.3880987,5.1428571 11,5.1428571 c 5.611902,0 6.436813,0.030917 6.655329,0.2494332 0.196325,0.1963254 0.249433,0.6187727 0.249433,1.984127 0,1.7298737 0.0011,1.7346938 0.384646,1.7346938 0.526129,0 1.302152,0.688771 1.520113,1.3491959 0.149965,0.454399 0.277247,0.562766 0.764563,0.65094 1.207249,0.218437 2.314416,1.049318 2.939826,2.206213 0.331446,0.613117 0.343233,0.809354 0.343233,5.714286 0,4.901705 -0.01198,5.101573 -0.342606,5.714286 -0.448507,0.831176 -1.078312,1.413906 -1.958981,1.812554 -0.691396,0.31297 -0.996605,0.323219 -9.52381,0.319851 -7.09455,-0.0028 -8.9295571,-0.04626 -9.4261143,-0.223247 z M 12.031746,19.031746 V 14.984127 H 7.984127 3.9365079 v 4.047619 4.047619 h 4.0476191 4.047619 z m 7.817327,-2.480925 c 0.333297,-0.446768 0.285078,-0.901931 -0.140651,-1.327659 -0.192812,-0.192813 -0.7262,-0.239035 -2.758378,-0.239035 -2.42348,0 -2.528747,0.01342 -2.76644,0.352779 -0.338121,0.482734 -0.309896,1.012993 0.07437,1.397263 0.299504,0.299504 0.490869,0.318485 2.800575,0.277778 2.470194,-0.04354 2.480225,-0.04519 2.790519,-0.461126 z"
   id="path5138"
   inkscape:connector-curvature="0" /><path
   style="opacity:0;fill:#800000;fill-opacity:0;stroke-width:0.15873016"
   d="M 2.6056317,26.65519 C 1.8280646,26.378051 0.81307162,25.413762 0.42900878,24.587302 0.16160351,24.011875 0.13362954,23.489283 0.13047016,19.010189 L 0.12698413,14.067997 0.57027587,13.21944 C 1.1180136,12.17095 2.0707573,11.419356 3.143846,11.18922 3.6322603,11.084473 5.9513078,11.015873 9.0038446,11.015873 h 5.0517114 l 0.09605,-0.480249 c 0.123,-0.6149969 0.753149,-1.2451462 1.368146,-1.3681456 C 15.998379,9.0717527 16,9.067746 16,7.9801587 V 6.8888889 h -5.689684 c -5.3104884,0 -5.7071928,-0.019346 -5.9523814,-0.2902764 C 4.0268679,6.232788 4.0211833,5.715778 4.3446713,5.3922903 4.5631878,5.1737737 5.3880987,5.1428571 11,5.1428571 c 5.611902,0 6.436813,0.030917 6.655329,0.2494332 0.196325,0.1963254 0.249433,0.6187727 0.249433,1.984127 0,1.7298737 0.0011,1.7346938 0.384646,1.7346938 0.526129,0 1.302152,0.688771 1.520113,1.3491959 0.149965,0.454399 0.277247,0.562766 0.764563,0.65094 1.207249,0.218437 2.314416,1.049318 2.939826,2.206213 0.331446,0.613117 0.343233,0.809354 0.343233,5.714286 0,4.901705 -0.01198,5.101573 -0.342606,5.714286 -0.448507,0.831176 -1.078312,1.413906 -1.958981,1.812554 -0.691396,0.31297 -0.996605,0.323219 -9.52381,0.319851 -7.09455,-0.0028 -8.9295571,-0.04626 -9.4261143,-0.223247 z M 12.031746,19.031746 V 14.984127 H 7.984127 3.9365079 v 4.047619 4.047619 h 4.0476191 4.047619 z m 7.817327,-2.480925 c 0.333297,-0.446768 0.285078,-0.901931 -0.140651,-1.327659 -0.192812,-0.192813 -0.7262,-0.239035 -2.758378,-0.239035 -2.42348,0 -2.528747,0.01342 -2.76644,0.352779 -0.338121,0.482734 -0.309896,1.012993 0.07437,1.397263 0.299504,0.299504 0.490869,0.318485 2.800575,0.277778 2.470194,-0.04354 2.480225,-0.04519 2.790519,-0.461126 z"
   id="path5140"
   inkscape:connector-curvature="0" /><path
   style="opacity:0;fill:#800000;fill-opacity:0;stroke-width:0.15873016"
   d="M 2.6056317,26.65519 C 1.8280646,26.378051 0.81307162,25.413762 0.42900878,24.587302 0.16160351,24.011875 0.13362954,23.489283 0.13047016,19.010189 L 0.12698413,14.067997 0.57027587,13.21944 C 1.1180136,12.17095 2.0707573,11.419356 3.143846,11.18922 3.6322603,11.084473 5.9513078,11.015873 9.0038446,11.015873 h 5.0517114 l 0.09605,-0.480249 c 0.123,-0.6149969 0.753149,-1.2451462 1.368146,-1.3681456 C 15.998379,9.0717527 16,9.067746 16,7.9801587 V 6.8888889 h -5.689684 c -5.3104884,0 -5.7071928,-0.019346 -5.9523814,-0.2902764 C 4.0268679,6.232788 4.0211833,5.715778 4.3446713,5.3922903 4.5631878,5.1737737 5.3880987,5.1428571 11,5.1428571 c 5.611902,0 6.436813,0.030917 6.655329,0.2494332 0.196325,0.1963254 0.249433,0.6187727 0.249433,1.984127 0,1.7298737 0.0011,1.7346938 0.384646,1.7346938 0.526129,0 1.302152,0.688771 1.520113,1.3491959 0.149965,0.454399 0.277247,0.562766 0.764563,0.65094 1.207249,0.218437 2.314416,1.049318 2.939826,2.206213 0.331446,0.613117 0.343233,0.809354 0.343233,5.714286 0,4.901705 -0.01198,5.101573 -0.342606,5.714286 -0.448507,0.831176 -1.078312,1.413906 -1.958981,1.812554 -0.691396,0.31297 -0.996605,0.323219 -9.52381,0.319851 -7.09455,-0.0028 -8.9295571,-0.04626 -9.4261143,-0.223247 z M 12.031746,19.031746 V 14.984127 H 7.984127 3.9365079 v 4.047619 4.047619 h 4.0476191 4.047619 z m 7.817327,-2.480925 c 0.333297,-0.446768 0.285078,-0.901931 -0.140651,-1.327659 -0.192812,-0.192813 -0.7262,-0.239035 -2.758378,-0.239035 -2.42348,0 -2.528747,0.01342 -2.76644,0.352779 -0.338121,0.482734 -0.309896,1.012993 0.07437,1.397263 0.299504,0.299504 0.490869,0.318485 2.800575,0.277778 2.470194,-0.04354 2.480225,-0.04519 2.790519,-0.461126 z"
   id="path5142"
   inkscape:connector-curvature="0" /><path
   style="opacity:0;fill:#800000;fill-opacity:0;stroke-width:0.15873016"
   d="M 2.6056317,26.65519 C 1.8280646,26.378051 0.81307162,25.413762 0.42900878,24.587302 0.16160351,24.011875 0.13362954,23.489283 0.13047016,19.010189 L 0.12698413,14.067997 0.57027587,13.21944 C 1.1180136,12.17095 2.0707573,11.419356 3.143846,11.18922 3.6322603,11.084473 5.9513078,11.015873 9.0038446,11.015873 h 5.0517114 l 0.09605,-0.480249 c 0.123,-0.6149969 0.753149,-1.2451462 1.368146,-1.3681456 C 15.998379,9.0717527 16,9.067746 16,7.9801587 V 6.8888889 h -5.689684 c -5.3104884,0 -5.7071928,-0.019346 -5.9523814,-0.2902764 C 4.0268679,6.232788 4.0211833,5.715778 4.3446713,5.3922903 4.5631878,5.1737737 5.3880987,5.1428571 11,5.1428571 c 5.611902,0 6.436813,0.030917 6.655329,0.2494332 0.196325,0.1963254 0.249433,0.6187727 0.249433,1.984127 0,1.7298737 0.0011,1.7346938 0.384646,1.7346938 0.526129,0 1.302152,0.688771 1.520113,1.3491959 0.149965,0.454399 0.277247,0.562766 0.764563,0.65094 1.207249,0.218437 2.314416,1.049318 2.939826,2.206213 0.331446,0.613117 0.343233,0.809354 0.343233,5.714286 0,4.901705 -0.01198,5.101573 -0.342606,5.714286 -0.448507,0.831176 -1.078312,1.413906 -1.958981,1.812554 -0.691396,0.31297 -0.996605,0.323219 -9.52381,0.319851 -7.09455,-0.0028 -8.9295571,-0.04626 -9.4261143,-0.223247 z M 12.031746,19.031746 V 14.984127 H 7.984127 3.9365079 v 4.047619 4.047619 h 4.0476191 4.047619 z m 7.817327,-2.480925 c 0.333297,-0.446768 0.285078,-0.901931 -0.140651,-1.327659 -0.192812,-0.192813 -0.7262,-0.239035 -2.758378,-0.239035 -2.42348,0 -2.528747,0.01342 -2.76644,0.352779 -0.338121,0.482734 -0.309896,1.012993 0.07437,1.397263 0.299504,0.299504 0.490869,0.318485 2.800575,0.277778 2.470194,-0.04354 2.480225,-0.04519 2.790519,-0.461126 z"
   id="path5144"
   inkscape:connector-curvature="0" /><path
   style="opacity:0;fill:#800000;fill-opacity:0;stroke-width:0.15873016"
   d="M 2.6056317,26.65519 C 1.8280646,26.378051 0.81307162,25.413762 0.42900878,24.587302 0.16160351,24.011875 0.13362954,23.489283 0.13047016,19.010189 L 0.12698413,14.067997 0.57027587,13.21944 C 1.1180136,12.17095 2.0707573,11.419356 3.143846,11.18922 3.6322603,11.084473 5.9513078,11.015873 9.0038446,11.015873 h 5.0517114 l 0.09605,-0.480249 c 0.123,-0.6149969 0.753149,-1.2451462 1.368146,-1.3681456 C 15.998379,9.0717527 16,9.067746 16,7.9801587 V 6.8888889 h -5.689684 c -5.3104884,0 -5.7071928,-0.019346 -5.9523814,-0.2902764 C 4.0268679,6.232788 4.0211833,5.715778 4.3446713,5.3922903 4.5631878,5.1737737 5.3880987,5.1428571 11,5.1428571 c 5.611902,0 6.436813,0.030917 6.655329,0.2494332 0.196325,0.1963254 0.249433,0.6187727 0.249433,1.984127 0,1.7298737 0.0011,1.7346938 0.384646,1.7346938 0.526129,0 1.302152,0.688771 1.520113,1.3491959 0.149965,0.454399 0.277247,0.562766 0.764563,0.65094 1.207249,0.218437 2.314416,1.049318 2.939826,2.206213 0.331446,0.613117 0.343233,0.809354 0.343233,5.714286 0,4.901705 -0.01198,5.101573 -0.342606,5.714286 -0.448507,0.831176 -1.078312,1.413906 -1.958981,1.812554 -0.691396,0.31297 -0.996605,0.323219 -9.52381,0.319851 -7.09455,-0.0028 -8.9295571,-0.04626 -9.4261143,-0.223247 z M 12.031746,19.031746 V 14.984127 H 7.984127 3.9365079 v 4.047619 4.047619 h 4.0476191 4.047619 z m 7.817327,-2.480925 c 0.333297,-0.446768 0.285078,-0.901931 -0.140651,-1.327659 -0.192812,-0.192813 -0.7262,-0.239035 -2.758378,-0.239035 -2.42348,0 -2.528747,0.01342 -2.76644,0.352779 -0.338121,0.482734 -0.309896,1.012993 0.07437,1.397263 0.299504,0.299504 0.490869,0.318485 2.800575,0.277778 2.470194,-0.04354 2.480225,-0.04519 2.790519,-0.461126 z"
   id="path5146"
   inkscape:connector-curvature="0" /><path
   style="opacity:0;fill:#800000;fill-opacity:0;stroke-width:0.15873016"
   d="M 2.6056317,26.65519 C 1.8280646,26.378051 0.81307162,25.413762 0.42900878,24.587302 0.16160351,24.011875 0.13362954,23.489283 0.13047016,19.010189 L 0.12698413,14.067997 0.57027587,13.21944 C 1.1180136,12.17095 2.0707573,11.419356 3.143846,11.18922 3.6322603,11.084473 5.9513078,11.015873 9.0038446,11.015873 h 5.0517114 l 0.09605,-0.480249 c 0.123,-0.6149969 0.753149,-1.2451462 1.368146,-1.3681456 C 15.998379,9.0717527 16,9.067746 16,7.9801587 V 6.8888889 h -5.689684 c -5.3104884,0 -5.7071928,-0.019346 -5.9523814,-0.2902764 C 4.0268679,6.232788 4.0211833,5.715778 4.3446713,5.3922903 4.5631878,5.1737737 5.3880987,5.1428571 11,5.1428571 c 5.611902,0 6.436813,0.030917 6.655329,0.2494332 0.196325,0.1963254 0.249433,0.6187727 0.249433,1.984127 0,1.7298737 0.0011,1.7346938 0.384646,1.7346938 0.526129,0 1.302152,0.688771 1.520113,1.3491959 0.149965,0.454399 0.277247,0.562766 0.764563,0.65094 1.207249,0.218437 2.314416,1.049318 2.939826,2.206213 0.331446,0.613117 0.343233,0.809354 0.343233,5.714286 0,4.901705 -0.01198,5.101573 -0.342606,5.714286 -0.448507,0.831176 -1.078312,1.413906 -1.958981,1.812554 -0.691396,0.31297 -0.996605,0.323219 -9.52381,0.319851 -7.09455,-0.0028 -8.9295571,-0.04626 -9.4261143,-0.223247 z M 12.031746,19.031746 V 14.984127 H 7.984127 3.9365079 v 4.047619 4.047619 h 4.0476191 4.047619 z m 7.817327,-2.480925 c 0.333297,-0.446768 0.285078,-0.901931 -0.140651,-1.327659 -0.192812,-0.192813 -0.7262,-0.239035 -2.758378,-0.239035 -2.42348,0 -2.528747,0.01342 -2.76644,0.352779 -0.338121,0.482734 -0.309896,1.012993 0.07437,1.397263 0.299504,0.299504 0.490869,0.318485 2.800575,0.277778 2.470194,-0.04354 2.480225,-0.04519 2.790519,-0.461126 z"
   id="path5148"
   inkscape:connector-curvature="0" /><path
   style="opacity:1;fill:#63d1bb;fill-opacity:0;stroke-width:0.15873016"
   d="M 2.6056319,26.65519 C 1.8280648,26.378051 0.81307181,25.413762 0.42900897,24.587302 0.1616037,24.011875 0.13362973,23.489283 0.13047035,19.010189 L 0.12698432,14.067997 0.57027606,13.21944 C 1.1180138,12.17095 2.0707575,11.419356 3.1438462,11.18922 3.6322605,11.084473 5.951308,11.015873 9.0038448,11.015873 h 5.0517112 l 0.09605,-0.480249 C 14.274605,9.9206271 14.904754,9.2904778 15.519751,9.1674784 15.99838,9.0717527 16,9.067746 16,7.9801587 V 6.8888889 h -5.689684 c -5.3104882,0 -5.7071926,-0.019346 -5.9523812,-0.2902764 C 4.0268681,6.232788 4.0211835,5.715778 4.3446715,5.3922903 4.563188,5.1737737 5.3880989,5.1428571 11,5.1428571 c 5.611902,0 6.436813,0.030917 6.655329,0.2494332 0.196325,0.1963254 0.249433,0.6187727 0.249433,1.984127 0,1.7298737 0.0011,1.7346938 0.384646,1.7346938 0.526129,0 1.302153,0.688771 1.520113,1.3491959 0.149965,0.454399 0.277247,0.562766 0.764563,0.65094 1.20725,0.218437 2.314416,1.049318 2.939826,2.206213 0.331446,0.613117 0.343233,0.809354 0.343233,5.714286 0,4.901705 -0.01198,5.101573 -0.342606,5.714286 -0.448507,0.831176 -1.078311,1.413906 -1.958981,1.812554 -0.691395,0.31297 -0.996605,0.323219 -9.52381,0.319851 -7.0945498,-0.0028 -8.9295569,-0.04626 -9.4261141,-0.223247 z M 12.031746,19.031746 V 14.984127 H 7.9841272 3.9365081 v 4.047619 4.047619 h 4.0476191 4.0476188 z m 7.817327,-2.480925 c 0.333297,-0.446768 0.285078,-0.901931 -0.140651,-1.327659 -0.192812,-0.192813 -0.7262,-0.239035 -2.758377,-0.239035 -2.423481,0 -2.528748,0.01342 -2.766441,0.352779 -0.33812,0.482734 -0.309895,1.012993 0.07437,1.397263 0.299504,0.299504 0.490869,0.318485 2.800575,0.277778 2.470194,-0.04354 2.480226,-0.04519 2.790519,-0.461126 z"
   id="path877"
   inkscape:connector-curvature="0" /><path
   style="opacity:1;fill:#c87137;fill-opacity:0;stroke-width:0.15873016"
   d="M 2.6056319,26.65519 C 1.8280648,26.378051 0.81307181,25.413762 0.42900897,24.587302 0.1616037,24.011875 0.13362973,23.489283 0.13047035,19.010189 L 0.12698432,14.067997 0.57027606,13.21944 C 1.1180138,12.17095 2.0707575,11.419356 3.1438462,11.18922 3.6322605,11.084473 5.951308,11.015873 9.0038448,11.015873 h 5.0517112 l 0.09605,-0.480249 C 14.274605,9.9206271 14.904754,9.2904778 15.519751,9.1674784 15.99838,9.0717527 16,9.067746 16,7.9801587 V 6.8888889 h -5.689684 c -5.3104882,0 -5.7071926,-0.019346 -5.9523812,-0.2902764 C 4.0268681,6.232788 4.0211835,5.715778 4.3446715,5.3922903 4.563188,5.1737737 5.3880989,5.1428571 11,5.1428571 c 5.611902,0 6.436813,0.030917 6.655329,0.2494332 0.196325,0.1963254 0.249433,0.6187727 0.249433,1.984127 0,1.7298737 0.0011,1.7346938 0.384646,1.7346938 0.526129,0 1.302153,0.688771 1.520113,1.3491959 0.149965,0.454399 0.277247,0.562766 0.764563,0.65094 1.20725,0.218437 2.314416,1.049318 2.939826,2.206213 0.331446,0.613117 0.343233,0.809354 0.343233,5.714286 0,4.901705 -0.01198,5.101573 -0.342606,5.714286 -0.448507,0.831176 -1.078311,1.413906 -1.958981,1.812554 -0.691395,0.31297 -0.996605,0.323219 -9.52381,0.319851 -7.0945498,-0.0028 -8.9295569,-0.04626 -9.4261141,-0.223247 z M 12.031746,19.031746 V 14.984127 H 7.9841272 3.9365081 v 4.047619 4.047619 h 4.0476191 4.0476188 z m 7.817327,-2.480925 c 0.333297,-0.446768 0.285078,-0.901931 -0.140651,-1.327659 -0.192812,-0.192813 -0.7262,-0.239035 -2.758377,-0.239035 -2.423481,0 -2.528748,0.01342 -2.766441,0.352779 -0.33812,0.482734 -0.309895,1.012993 0.07437,1.397263 0.299504,0.299504 0.490869,0.318485 2.800575,0.277778 2.470194,-0.04354 2.480226,-0.04519 2.790519,-0.461126 z"
   id="path879"
   inkscape:connector-curvature="0" /><use
   id="use881"
   inkscape:spray-origin="#path879"
   xlink:href="#path879"
   x="0"
   y="0"
   width="100%"
   height="100%"
   transform="translate(11.738463,7.8658282)" /><use
   id="use883"
   inkscape:spray-origin="#path879"
   xlink:href="#path879"
   x="0"
   y="0"
   width="100%"
   height="100%"
   transform="translate(12.613502,6.9090391)" /><use
   id="use885"
   inkscape:spray-origin="#path879"
   xlink:href="#path879"
   x="0"
   y="0"
   width="100%"
   height="100%"
   transform="translate(6.9545342,1.9991967)" /><use
   id="use887"
   inkscape:spray-origin="#path879"
   xlink:href="#path879"
   x="0"
   y="0"
   width="100%"
   height="100%"
   transform="translate(9.0147472,9.297875)" /><use
   id="use889"
   inkscape:spray-origin="#path879"
   xlink:href="#path879"
   x="0"
   y="0"
   width="100%"
   height="100%"
   transform="translate(8.9881908,2.5856976)" /><use
   id="use891"
   inkscape:spray-origin="#path879"
   xlink:href="#path879"
   x="0"
   y="0"
   width="100%"
   height="100%"
   transform="translate(2.7436513,6.6903569)" /><use
   id="use893"
   inkscape:spray-origin="#path879"
   xlink:href="#path879"
   x="0"
   y="0"
   width="100%"
   height="100%"
   transform="translate(3.9523443,1.3711191)" /><use
   id="use895"
   inkscape:spray-origin="#path879"
   xlink:href="#path879"
   x="0"
   y="0"
   width="100%"
   height="100%"
   transform="translate(1.8834615,4.5464468)" /><use
   id="use897"
   inkscape:spray-origin="#path879"
   xlink:href="#path879"
   x="0"
   y="0"
   width="100%"
   height="100%"
   transform="translate(8.2144906,0.80013239)" /><use
   id="use899"
   inkscape:spray-origin="#path879"
   xlink:href="#path879"
   x="0"
   y="0"
   width="100%"
   height="100%"
   transform="translate(4.7748448,8.4947608)" /><use
   id="use901"
   inkscape:spray-origin="#path879"
   xlink:href="#path879"
   x="0"
   y="0"
   width="100%"
   height="100%"
   transform="translate(10.029312,4.984576)" /><use
   id="use903"
   inkscape:spray-origin="#path879"
   xlink:href="#path879"
   x="0"
   y="0"
   width="100%"
   height="100%"
   transform="translate(3.8333836,9.5082001)" /><use
   id="use905"
   inkscape:spray-origin="#path879"
   xlink:href="#path879"
   x="0"
   y="0"
   width="100%"
   height="100%"
   transform="translate(5.8969011,4.5994853)" /><use
   id="use907"
   inkscape:spray-origin="#path879"
   xlink:href="#path879"
   x="0"
   y="0"
   width="100%"
   height="100%"
   transform="translate(12.242774,7.2276932)" /><use
   id="use909"
   inkscape:spray-origin="#path879"
   xlink:href="#path879"
   x="0"
   y="0"
   width="100%"
   height="100%"
   transform="translate(11.50593,7.5986097)" /><use
   id="use911"
   inkscape:spray-origin="#path879"
   xlink:href="#path879"
   x="0"
   y="0"
   width="100%"
   height="100%"
   transform="translate(12.080813,5.2574676)" /><use
   id="use913"
   inkscape:spray-origin="#path879"
   xlink:href="#path879"
   x="0"
   y="0"
   width="100%"
   height="100%"
   transform="translate(11.17588,11.755521)" /><use
   id="use915"
   inkscape:spray-origin="#path879"
   xlink:href="#path879"
   x="0"
   y="0"
   width="100%"
   height="100%"
   transform="translate(5.608531,6.3372717)" /><use
   id="use917"
   inkscape:spray-origin="#path879"
   xlink:href="#path879"
   x="0"
   y="0"
   width="100%"
   height="100%"
   transform="translate(11.474622,1.1622414)" /><use
   id="use919"
   inkscape:spray-origin="#path879"
   xlink:href="#path879"
   x="0"
   y="0"
   width="100%"
   height="100%"
   transform="translate(12.061247,8.6632135)" /><use
   id="use921"
   inkscape:spray-origin="#path879"
   xlink:href="#path879"
   x="0"
   y="0"
   width="100%"
   height="100%"
   transform="translate(10.084257,10.966026)" /><use
   id="use923"
   inkscape:spray-origin="#path879"
   xlink:href="#path879"
   x="0"
   y="0"
   width="100%"
   height="100%"
   transform="translate(15.662059,4.1029523)" /><use
   id="use925"
   inkscape:spray-origin="#path879"
   xlink:href="#path879"
   x="0"
   y="0"
   width="100%"
   height="100%"
   transform="translate(10.8617,8.2498001)" /><use
   id="use927"
   inkscape:spray-origin="#path879"
   xlink:href="#path879"
   x="0"
   y="0"
   width="100%"
   height="100%"
   transform="translate(14.808288,5.7685901)" /><use
   id="use929"
   inkscape:spray-origin="#path879"
   xlink:href="#path879"
   x="0"
   y="0"
   width="100%"
   height="100%"
   transform="translate(14.085389,4.3761093)" /><use
   id="use931"
   inkscape:spray-origin="#path879"
   xlink:href="#path879"
   x="0"
   y="0"
   width="100%"
   height="100%"
   transform="translate(16.247042,4.8663024)" /><use
   id="use933"
   inkscape:spray-origin="#path879"
   xlink:href="#path879"
   x="0"
   y="0"
   width="100%"
   height="100%"
   transform="translate(13.049617,3.7060441)" /><use
   id="use935"
   inkscape:spray-origin="#path879"
   xlink:href="#path879"
   x="0"
   y="0"
   width="100%"
   height="100%"
   transform="translate(16.744225,3.1443696)" /><use
   id="use937"
   inkscape:spray-origin="#path879"
   xlink:href="#path879"
   x="0"
   y="0"
   width="100%"
   height="100%"
   transform="translate(11.9101,1.8708759)" /><use
   id="use939"
   inkscape:spray-origin="#path879"
   xlink:href="#path879"
   x="0"
   y="0"
   width="100%"
   height="100%"
   transform="translate(11.744414,4.2195953)" /><use
   id="use941"
   inkscape:spray-origin="#path879"
   xlink:href="#path879"
   x="0"
   y="0"
   width="100%"
   height="100%"
   transform="translate(7.2717653,6.848717)" /><use
   id="use943"
   inkscape:spray-origin="#path879"
   xlink:href="#path879"
   x="0"
   y="0"
   width="100%"
   height="100%"
   transform="translate(10.137556,6.9020053)" /><use
   id="use945"
   inkscape:spray-origin="#path879"
   xlink:href="#path879"
   x="0"
   y="0"
   width="100%"
   height="100%"
   transform="translate(7.2260363,1.5939497)" /><use
   id="use947"
   inkscape:spray-origin="#path879"
   xlink:href="#path879"
   x="0"
   y="0"
   width="100%"
   height="100%"
   transform="translate(8.9923254,4.3967492)" /><use
   id="use949"
   inkscape:spray-origin="#path879"
   xlink:href="#path879"
   x="0"
   y="0"
   width="100%"
   height="100%"
   transform="translate(8.1105284,9.9083494)" /><use
   id="use951"
   inkscape:spray-origin="#path879"
   xlink:href="#path879"
   x="0"
   y="0"
   width="100%"
   height="100%"
   transform="translate(5.2716442,7.7198204)" /><use
   id="use953"
   inkscape:spray-origin="#path879"
   xlink:href="#path879"
   x="0"
   y="0"
   width="100%"
   height="100%"
   transform="translate(7.5568886,12.038254)" /><use
   id="use955"
   inkscape:spray-origin="#path879"
   xlink:href="#path879"
   x="0"
   y="0"
   width="100%"
   height="100%"
   transform="translate(5.6143033,9.1854815)" /><use
   id="use957"
   inkscape:spray-origin="#path879"
   xlink:href="#path879"
   x="0"
   y="0"
   width="100%"
   height="100%"
   transform="translate(10.364672,8.3914903)" /><use
   id="use959"
   inkscape:spray-origin="#path879"
   xlink:href="#path879"
   x="0"
   y="0"
   width="100%"
   height="100%"
   transform="translate(5.1364259,4.4978848)" /><use
   id="use961"
   inkscape:spray-origin="#path879"
   xlink:href="#path879"
   x="0"
   y="0"
   width="100%"
   height="100%"
   transform="translate(5.4708989,12.823109)" /><use
   id="use963"
   inkscape:spray-origin="#path879"
   xlink:href="#path879"
   x="0"
   y="0"
   width="100%"
   height="100%"
   transform="translate(7.3624558,15.0358)" /><use
   id="use965"
   inkscape:spray-origin="#path879"
   xlink:href="#path879"
   x="0"
   y="0"
   width="100%"
   height="100%"
   transform="translate(6.3685501,7.0173634)" /><use
   id="use967"
   inkscape:spray-origin="#path879"
   xlink:href="#path879"
   x="0"
   y="0"
   width="100%"
   height="100%"
   transform="translate(8.457766,13.180676)" /><use
   id="use969"
   inkscape:spray-origin="#path879"
   xlink:href="#path879"
   x="0"
   y="0"
   width="100%"
   height="100%"
   transform="translate(8.6444189,9.1260825)" /><use
   id="use971"
   inkscape:spray-origin="#path879"
   xlink:href="#path879"
   x="0"
   y="0"
   width="100%"
   height="100%"
   transform="translate(8.3123408,9.5993489)" /><use
   id="use973"
   inkscape:spray-origin="#path879"
   xlink:href="#path879"
   x="0"
   y="0"
   width="100%"
   height="100%"
   transform="translate(7.0788747,7.6471536)" /><use
   id="use975"
   inkscape:spray-origin="#path879"
   xlink:href="#path879"
   x="0"
   y="0"
   width="100%"
   height="100%"
   transform="translate(8.7555325,9.2926297)" /><use
   id="use977"
   inkscape:spray-origin="#path879"
   xlink:href="#path879"
   x="0"
   y="0"
   width="100%"
   height="100%"
   transform="translate(15.346563,13.004274)" /><use
   id="use979"
   inkscape:spray-origin="#path879"
   xlink:href="#path879"
   x="0"
   y="0"
   width="100%"
   height="100%"
   transform="translate(15.571513,11.010986)" /><use
   id="use981"
   inkscape:spray-origin="#path879"
   xlink:href="#path879"
   x="0"
   y="0"
   width="100%"
   height="100%"
   transform="translate(13.843512,17.080189)" /><use
   id="use983"
   inkscape:spray-origin="#path879"
   xlink:href="#path879"
   x="0"
   y="0"
   width="100%"
   height="100%"
   transform="translate(10.258646,17.961895)" /><use
   id="use985"
   inkscape:spray-origin="#path879"
   xlink:href="#path879"
   x="0"
   y="0"
   width="100%"
   height="100%"
   transform="translate(15.913813,14.618115)" /><use
   id="use987"
   inkscape:spray-origin="#path879"
   xlink:href="#path879"
   x="0"
   y="0"
   width="100%"
   height="100%"
   transform="translate(13.375576,12.345838)" /><use
   id="use989"
   inkscape:spray-origin="#path879"
   xlink:href="#path879"
   x="0"
   y="0"
   width="100%"
   height="100%"
   transform="translate(11.950796,13.629868)" /><use
   id="use991"
   inkscape:spray-origin="#path879"
   xlink:href="#path879"
   x="0"
   y="0"
   width="100%"
   height="100%"
   transform="translate(14.787984,14.792128)" /><use
   id="use993"
   inkscape:spray-origin="#path879"
   xlink:href="#path879"
   x="0"
   y="0"
   width="100%"
   height="100%"
   transform="translate(14.006311,15.316472)" /><use
   id="use995"
   inkscape:spray-origin="#path879"
   xlink:href="#path879"
   x="0"
   y="0"
   width="100%"
   height="100%"
   transform="translate(19.917522,20.103364)" /><use
   id="use997"
   inkscape:spray-origin="#path879"
   xlink:href="#path879"
   x="0"
   y="0"
   width="100%"
   height="100%"
   transform="translate(18.223486,22.265026)" /><use
   id="use999"
   inkscape:spray-origin="#path879"
   xlink:href="#path879"
   x="0"
   y="0"
   width="100%"
   height="100%"
   transform="translate(20.079409,19.267653)" /><use
   id="use1001"
   inkscape:spray-origin="#path879"
   xlink:href="#path879"
   x="0"
   y="0"
   width="100%"
   height="100%"
   transform="translate(15.057437,19.378453)" /><use
   id="use1003"
   inkscape:spray-origin="#path879"
   xlink:href="#path879"
   x="0"
   y="0"
   width="100%"
   height="100%"
   transform="translate(20.941367,20.904761)" /><use
   id="use1005"
   inkscape:spray-origin="#path879"
   xlink:href="#path879"
   x="0"
   y="0"
   width="100%"
   height="100%"
   transform="translate(17.885645,23.741441)" /><use
   id="use1007"
   inkscape:spray-origin="#path879"
   xlink:href="#path879"
   x="0"
   y="0"
   width="100%"
   height="100%"
   transform="translate(16.995591,19.985647)" /><use
   id="use1009"
   inkscape:spray-origin="#path879"
   xlink:href="#path879"
   x="0"
   y="0"
   width="100%"
   height="100%"
   transform="translate(21.716008,23.753767)" /><use
   id="use1011"
   inkscape:spray-origin="#path879"
   xlink:href="#path879"
   x="0"
   y="0"
   width="100%"
   height="100%"
   transform="translate(19.864549,19.233303)" /><use
   id="use1013"
   inkscape:spray-origin="#path879"
   xlink:href="#path879"
   x="0"
   y="0"
   width="100%"
   height="100%"
   transform="translate(16.984262,25.991205)" /><use
   id="use1015"
   inkscape:spray-origin="#path879"
   xlink:href="#path879"
   x="0"
   y="0"
   width="100%"
   height="100%"
   transform="translate(18.49495,24.533939)" /><use
   id="use1017"
   inkscape:spray-origin="#path879"
   xlink:href="#path879"
   x="0"
   y="0"
   width="100%"
   height="100%"
   transform="translate(23.700485,23.44929)" /><use
   id="use1019"
   inkscape:spray-origin="#path879"
   xlink:href="#path879"
   x="0"
   y="0"
   width="100%"
   height="100%"
   transform="translate(24.166135,28.769947)" /><use
   id="use1021"
   inkscape:spray-origin="#path879"
   xlink:href="#path879"
   x="0"
   y="0"
   width="100%"
   height="100%"
   transform="translate(23.005543,21.107912)" /><use
   id="use1023"
   inkscape:spray-origin="#path879"
   xlink:href="#path879"
   x="0"
   y="0"
   width="100%"
   height="100%"
   transform="translate(23.272754,24.807164)" /><use
   id="use1025"
   inkscape:spray-origin="#path879"
   xlink:href="#path879"
   x="0"
   y="0"
   width="100%"
   height="100%"
   transform="translate(26.231031,25.09627)" /><use
   id="use1027"
   inkscape:spray-origin="#path879"
   xlink:href="#path879"
   x="0"
   y="0"
   width="100%"
   height="100%"
   transform="translate(22.720107,29.465173)" /><use
   id="use1029"
   inkscape:spray-origin="#path879"
   xlink:href="#path879"
   x="0"
   y="0"
   width="100%"
   height="100%"
   transform="translate(25.134102,28.208172)" /><use
   id="use1031"
   inkscape:spray-origin="#path879"
   xlink:href="#path879"
   x="0"
   y="0"
   width="100%"
   height="100%"
   transform="translate(23.140086,32.849037)" /><use
   id="use1033"
   inkscape:spray-origin="#path879"
   xlink:href="#path879"
   x="0"
   y="0"
   width="100%"
   height="100%"
   transform="translate(26.81657,35.376146)" /><use
   id="use1035"
   inkscape:spray-origin="#path879"
   xlink:href="#path879"
   x="0"
   y="0"
   width="100%"
   height="100%"
   transform="translate(26.349768,32.691822)" /><use
   id="use1037"
   inkscape:spray-origin="#path879"
   xlink:href="#path879"
   x="0"
   y="0"
   width="100%"
   height="100%"
   transform="translate(25.229281,34.451278)" /><use
   id="use1039"
   inkscape:spray-origin="#path879"
   xlink:href="#path879"
   x="0"
   y="0"
   width="100%"
   height="100%"
   transform="translate(21.270153,33.596953)" /><use
   id="use1041"
   inkscape:spray-origin="#path879"
   xlink:href="#path879"
   x="0"
   y="0"
   width="100%"
   height="100%"
   transform="translate(24.511715,37.004174)" /><use
   id="use1043"
   inkscape:spray-origin="#path879"
   xlink:href="#path879"
   x="0"
   y="0"
   width="100%"
   height="100%"
   transform="translate(22.076322,39.599242)" /><use
   id="use1045"
   inkscape:spray-origin="#path879"
   xlink:href="#path879"
   x="0"
   y="0"
   width="100%"
   height="100%"
   transform="translate(16.708974,37.589257)" /><use
   id="use1047"
   inkscape:spray-origin="#path879"
   xlink:href="#path879"
   x="0"
   y="0"
   width="100%"
   height="100%"
   transform="translate(17.289138,39.854267)" /><use
   id="use1049"
   inkscape:spray-origin="#path879"
   xlink:href="#path879"
   x="0"
   y="0"
   width="100%"
   height="100%"
   transform="translate(21.611434,40.258358)" /><use
   id="use1051"
   inkscape:spray-origin="#path879"
   xlink:href="#path879"
   x="0"
   y="0"
   width="100%"
   height="100%"
   transform="translate(21.908693,45.136656)" /><use
   id="use1053"
   inkscape:spray-origin="#path879"
   xlink:href="#path879"
   x="0"
   y="0"
   width="100%"
   height="100%"
   transform="translate(16.559487,40.985451)" /><use
   id="use1055"
   inkscape:spray-origin="#path879"
   xlink:href="#path879"
   x="0"
   y="0"
   width="100%"
   height="100%"
   transform="translate(16.901155,41.631223)" /><use
   id="use1057"
   inkscape:spray-origin="#path879"
   xlink:href="#path879"
   x="0"
   y="0"
   width="100%"
   height="100%"
   transform="translate(15.94275,47.031126)" /><use
   id="use1059"
   inkscape:spray-origin="#path879"
   xlink:href="#path879"
   x="0"
   y="0"
   width="100%"
   height="100%"
   transform="translate(12.629655,43.647562)" /><use
   id="use1061"
   inkscape:spray-origin="#path879"
   xlink:href="#path879"
   x="0"
   y="0"
   width="100%"
   height="100%"
   transform="translate(23.081726,59.471711)" /><use
   id="use1063"
   inkscape:spray-origin="#path879"
   xlink:href="#path879"
   x="0"
   y="0"
   width="100%"
   height="100%"
   transform="translate(22.884843,59.219252)" /><use
   id="use1065"
   inkscape:spray-origin="#path879"
   xlink:href="#path879"
   x="0"
   y="0"
   width="100%"
   height="100%"
   transform="translate(24.196805,55.968144)" /><use
   id="use1067"
   inkscape:spray-origin="#path879"
   xlink:href="#path879"
   x="0"
   y="0"
   width="100%"
   height="100%"
   transform="translate(17.979406,59.954862)" /><use
   id="use1069"
   inkscape:spray-origin="#path879"
   xlink:href="#path879"
   x="0"
   y="0"
   width="100%"
   height="100%"
   transform="translate(25.329312,55.070852)" /><use
   id="use1071"
   inkscape:spray-origin="#path879"
   xlink:href="#path879"
   x="0"
   y="0"
   width="100%"
   height="100%"
   transform="translate(20.304741,58.147556)" /><use
   id="use1073"
   inkscape:spray-origin="#path879"
   xlink:href="#path879"
   x="0"
   y="0"
   width="100%"
   height="100%"
   transform="translate(22.965407,64.660919)" /><use
   id="use1075"
   inkscape:spray-origin="#path879"
   xlink:href="#path879"
   x="0"
   y="0"
   width="100%"
   height="100%"
   transform="translate(27.177795,62.881657)" /><use
   id="use1077"
   inkscape:spray-origin="#path879"
   xlink:href="#path879"
   x="0"
   y="0"
   width="100%"
   height="100%"
   transform="translate(26.754769,60.528055)" /><use
   id="use1079"
   inkscape:spray-origin="#path879"
   xlink:href="#path879"
   x="0"
   y="0"
   width="100%"
   height="100%"
   transform="translate(26.429508,55.326266)" /><use
   id="use1081"
   inkscape:spray-origin="#path879"
   xlink:href="#path879"
   x="0"
   y="0"
   width="100%"
   height="100%"
   transform="translate(23.427726,64.926681)" /><use
   id="use1083"
   inkscape:spray-origin="#path879"
   xlink:href="#path879"
   x="0"
   y="0"
   width="100%"
   height="100%"
   transform="translate(23.268704,66.695647)" /><use
   id="use1085"
   inkscape:spray-origin="#path879"
   xlink:href="#path879"
   x="0"
   y="0"
   width="100%"
   height="100%"
   transform="translate(29.066549,64.282198)" /><use
   id="use1087"
   inkscape:spray-origin="#path879"
   xlink:href="#path879"
   x="0"
   y="0"
   width="100%"
   height="100%"
   transform="translate(20.398418,62.050997)" /><use
   id="use1089"
   inkscape:spray-origin="#path879"
   xlink:href="#path879"
   x="0"
   y="0"
   width="100%"
   height="100%"
   transform="translate(3.4849802,8.1437722)" /><use
   id="use1091"
   inkscape:spray-origin="#path879"
   xlink:href="#path879"
   x="0"
   y="0"
   width="100%"
   height="100%"
   transform="translate(1.5101814,3.619231)" /><use
   id="use1093"
   inkscape:spray-origin="#path879"
   xlink:href="#path879"
   x="0"
   y="0"
   width="100%"
   height="100%"
   transform="translate(6.6066778,5.0174246)" /><use
   id="use1095"
   inkscape:spray-origin="#path879"
   xlink:href="#path879"
   x="0"
   y="0"
   width="100%"
   height="100%"
   transform="translate(0.59518545,4.3470658)" /><use
   id="use1097"
   inkscape:spray-origin="#path879"
   xlink:href="#path879"
   x="0"
   y="0"
   width="100%"
   height="100%"
   transform="translate(1.5205892,3.782743)" /><use
   id="use1099"
   inkscape:spray-origin="#path879"
   xlink:href="#path879"
   x="0"
   y="0"
   width="100%"
   height="100%"
   transform="translate(1.7657467,5.52235)" /><use
   id="use1101"
   inkscape:spray-origin="#path879"
   xlink:href="#path879"
   x="0"
   y="0"
   width="100%"
   height="100%"
   transform="translate(2.4823025,9.98728)" /><use
   id="use1103"
   inkscape:spray-origin="#path879"
   xlink:href="#path879"
   x="0"
   y="0"
   width="100%"
   height="100%"
   transform="translate(6.5232448,8.0473304)" /><use
   id="use1105"
   inkscape:spray-origin="#path879"
   xlink:href="#path879"
   x="0"
   y="0"
   width="100%"
   height="100%"
   transform="translate(-0.13373989,10.001371)" /><use
   id="use1107"
   inkscape:spray-origin="#path879"
   xlink:href="#path879"
   x="0"
   y="0"
   width="100%"
   height="100%"
   transform="translate(1.1109716,12.475117)" /><use
   id="use1109"
   inkscape:spray-origin="#path879"
   xlink:href="#path879"
   x="0"
   y="0"
   width="100%"
   height="100%"
   transform="translate(7.6623628,13.409199)" /><use
   id="use1111"
   inkscape:spray-origin="#path879"
   xlink:href="#path879"
   x="0"
   y="0"
   width="100%"
   height="100%"
   transform="translate(6.6472523,8.0460659)" /><use
   id="use1113"
   inkscape:spray-origin="#path879"
   xlink:href="#path879"
   x="0"
   y="0"
   width="100%"
   height="100%"
   transform="translate(10.555911,12.335406)" /><use
   id="use1115"
   inkscape:spray-origin="#path879"
   xlink:href="#path879"
   x="0"
   y="0"
   width="100%"
   height="100%"
   transform="translate(4.1918185,9.5110399)" /><use
   id="use1117"
   inkscape:spray-origin="#path879"
   xlink:href="#path879"
   x="0"
   y="0"
   width="100%"
   height="100%"
   transform="translate(9.2474799,13.158924)" /><use
   id="use1119"
   inkscape:spray-origin="#path879"
   xlink:href="#path879"
   x="0"
   y="0"
   width="100%"
   height="100%"
   transform="translate(7.4026848,13.573014)" /><use
   id="use1121"
   inkscape:spray-origin="#path879"
   xlink:href="#path879"
   x="0"
   y="0"
   width="100%"
   height="100%"
   transform="translate(12.514173,13.927032)" /><use
   id="use1123"
   inkscape:spray-origin="#path879"
   xlink:href="#path879"
   x="0"
   y="0"
   width="100%"
   height="100%"
   transform="translate(6.8231824,13.994548)" /><use
   id="use1125"
   inkscape:spray-origin="#path879"
   xlink:href="#path879"
   x="0"
   y="0"
   width="100%"
   height="100%"
   transform="translate(10.410551,14.116529)" /><use
   id="use1127"
   inkscape:spray-origin="#path879"
   xlink:href="#path879"
   x="0"
   y="0"
   width="100%"
   height="100%"
   transform="translate(12.974697,12.826929)" /><use
   id="use1129"
   inkscape:spray-origin="#path879"
   xlink:href="#path879"
   x="0"
   y="0"
   width="100%"
   height="100%"
   transform="translate(10.267141,16.005977)" /><use
   id="use1131"
   inkscape:spray-origin="#path879"
   xlink:href="#path879"
   x="0"
   y="0"
   width="100%"
   height="100%"
   transform="translate(9.9027387,15.009187)" /><use
   id="use1133"
   inkscape:spray-origin="#path879"
   xlink:href="#path879"
   x="0"
   y="0"
   width="100%"
   height="100%"
   transform="translate(6.2512895,17.504687)" /><use
   id="use1135"
   inkscape:spray-origin="#path879"
   xlink:href="#path879"
   x="0"
   y="0"
   width="100%"
   height="100%"
   transform="translate(5.2820989,15.207913)" /><use
   id="use1137"
   inkscape:spray-origin="#path879"
   xlink:href="#path879"
   x="0"
   y="0"
   width="100%"
   height="100%"
   transform="translate(11.338838,11.936909)" /><use
   id="use1139"
   inkscape:spray-origin="#path879"
   xlink:href="#path879"
   x="0"
   y="0"
   width="100%"
   height="100%"
   transform="translate(6.3558109,14.11606)" /><use
   id="use1141"
   inkscape:spray-origin="#path879"
   xlink:href="#path879"
   x="0"
   y="0"
   width="100%"
   height="100%"
   transform="translate(9.7462738,7.7758992)" /><use
   id="use1143"
   inkscape:spray-origin="#path879"
   xlink:href="#path879"
   x="0"
   y="0"
   width="100%"
   height="100%"
   transform="translate(13.104563,9.128645)" /><use
   id="use1145"
   inkscape:spray-origin="#path879"
   xlink:href="#path879"
   x="0"
   y="0"
   width="100%"
   height="100%"
   transform="translate(13.806632,10.981669)" /><use
   id="use1147"
   inkscape:spray-origin="#path879"
   xlink:href="#path879"
   x="0"
   y="0"
   width="100%"
   height="100%"
   transform="translate(17.775522,2.2901526)" /><use
   id="use1149"
   inkscape:spray-origin="#path879"
   xlink:href="#path879"
   x="0"
   y="0"
   width="100%"
   height="100%"
   transform="translate(17.302553,5.4626265)" /><use
   id="use1151"
   inkscape:spray-origin="#path879"
   xlink:href="#path879"
   x="0"
   y="0"
   width="100%"
   height="100%"
   transform="translate(22.155153,4.9529929)" /><use
   id="use1153"
   inkscape:spray-origin="#path879"
   xlink:href="#path879"
   x="0"
   y="0"
   width="100%"
   height="100%"
   transform="translate(20.729351,2.922129)" /><use
   id="use1155"
   inkscape:spray-origin="#path879"
   xlink:href="#path879"
   x="0"
   y="0"
   width="100%"
   height="100%"
   transform="translate(22.417082,0.36320765)" /><use
   id="use1157"
   inkscape:spray-origin="#path879"
   xlink:href="#path879"
   x="0"
   y="0"
   width="100%"
   height="100%"
   transform="translate(22.553388,-0.43686023)" /><use
   id="use1159"
   inkscape:spray-origin="#path879"
   xlink:href="#path879"
   x="0"
   y="0"
   width="100%"
   height="100%"
   transform="translate(19.873555,3.362372)" /><use
   id="use1161"
   inkscape:spray-origin="#path879"
   xlink:href="#path879"
   x="0"
   y="0"
   width="100%"
   height="100%"
   transform="translate(22.508593,6.5997312)" /><use
   id="use1163"
   inkscape:spray-origin="#path879"
   xlink:href="#path879"
   x="0"
   y="0"
   width="100%"
   height="100%"
   transform="translate(20.706199,3.763736)" /><use
   id="use1165"
   inkscape:spray-origin="#path879"
   xlink:href="#path879"
   x="0"
   y="0"
   width="100%"
   height="100%"
   transform="translate(20.373102,2.2218944)" /><use
   id="use1167"
   inkscape:spray-origin="#path879"
   xlink:href="#path879"
   x="0"
   y="0"
   width="100%"
   height="100%"
   transform="translate(12.594966,5.5625526)" /><use
   id="use1169"
   inkscape:spray-origin="#path879"
   xlink:href="#path879"
   x="0"
   y="0"
   width="100%"
   height="100%"
   transform="translate(8.1298947,6.7181547)" /><use
   id="use1171"
   inkscape:spray-origin="#path879"
   xlink:href="#path879"
   x="0"
   y="0"
   width="100%"
   height="100%"
   transform="translate(4.945807,1.9741914)" /><use
   id="use1173"
   inkscape:spray-origin="#path879"
   xlink:href="#path879"
   x="0"
   y="0"
   width="100%"
   height="100%"
   transform="translate(3.0702002,5.075768)" /><use
   id="use1175"
   inkscape:spray-origin="#path879"
   xlink:href="#path879"
   x="0"
   y="0"
   width="100%"
   height="100%"
   transform="translate(-3.1087473,9.1778792)" /><use
   id="use1177"
   inkscape:spray-origin="#path879"
   xlink:href="#path879"
   x="0"
   y="0"
   width="100%"
   height="100%"
   transform="translate(-6.5694299,12.989856)" /><use
   id="use1179"
   inkscape:spray-origin="#path879"
   xlink:href="#path879"
   x="0"
   y="0"
   width="100%"
   height="100%"
   transform="translate(-7.4104385,12.554797)" /><use
   id="use1181"
   inkscape:spray-origin="#path879"
   xlink:href="#path879"
   x="0"
   y="0"
   width="100%"
   height="100%"
   transform="translate(-7.0650023,4.6641934)" /><use
   id="use1183"
   inkscape:spray-origin="#path879"
   xlink:href="#path879"
   x="0"
   y="0"
   width="100%"
   height="100%"
   transform="translate(-9.194944,8.000816)" /><use
   id="use1185"
   inkscape:spray-origin="#path879"
   xlink:href="#path879"
   x="0"
   y="0"
   width="100%"
   height="100%"
   transform="translate(-12.364423,7.9806215)" /><use
   id="use1187"
   inkscape:spray-origin="#path879"
   xlink:href="#path879"
   x="0"
   y="0"
   width="100%"
   height="100%"
   transform="translate(-11.220363,8.1706574)" /><use
   id="use1189"
   inkscape:spray-origin="#path879"
   xlink:href="#path879"
   x="0"
   y="0"
   width="100%"
   height="100%"
   transform="translate(-3.9222884,9.0406076)" /><use
   id="use1191"
   inkscape:spray-origin="#path879"
   xlink:href="#path879"
   x="0"
   y="0"
   width="100%"
   height="100%"
   transform="translate(9.5143529,2.7921698)" /><use
   id="use1193"
   inkscape:spray-origin="#path879"
   xlink:href="#path879"
   x="0"
   y="0"
   width="100%"
   height="100%"
   transform="translate(8.2175624,-0.25058627)" /><use
   id="use1195"
   inkscape:spray-origin="#path879"
   xlink:href="#path879"
   x="0"
   y="0"
   width="100%"
   height="100%"
   transform="translate(6.6017604,1.7510793)" /><use
   id="use1197"
   inkscape:spray-origin="#path879"
   xlink:href="#path879"
   x="0"
   y="0"
   width="100%"
   height="100%"
   transform="translate(5.0392863,3.1552234)" /><use
   id="use1199"
   inkscape:spray-origin="#path879"
   xlink:href="#path879"
   x="0"
   y="0"
   width="100%"
   height="100%"
   transform="translate(11.954561,3.7787819)" /><use
   id="use1201"
   inkscape:spray-origin="#path879"
   xlink:href="#path879"
   x="0"
   y="0"
   width="100%"
   height="100%"
   transform="translate(11.785766,0.81956219)" /><use
   id="use1203"
   inkscape:spray-origin="#path879"
   xlink:href="#path879"
   x="0"
   y="0"
   width="100%"
   height="100%"
   transform="translate(10.039707,4.1541971)" /><use
   id="use1205"
   inkscape:spray-origin="#path879"
   xlink:href="#path879"
   x="0"
   y="0"
   width="100%"
   height="100%"
   transform="translate(13.31583,8.5732074)" /><use
   id="use1207"
   inkscape:spray-origin="#path879"
   xlink:href="#path879"
   x="0"
   y="0"
   width="100%"
   height="100%"
   transform="translate(11.259735,3.4583831)" /><use
   id="use1209"
   inkscape:spray-origin="#path879"
   xlink:href="#path879"
   x="0"
   y="0"
   width="100%"
   height="100%"
   transform="translate(6.9469314,10.065509)" /><use
   id="use1211"
   inkscape:spray-origin="#path879"
   xlink:href="#path879"
   x="0"
   y="0"
   width="100%"
   height="100%"
   transform="translate(10.123371,4.7528063)" /><use
   id="use1213"
   inkscape:spray-origin="#path879"
   xlink:href="#path879"
   x="0"
   y="0"
   width="100%"
   height="100%"
   transform="translate(7.4345507,2.1823271)" /><use
   id="use1215"
   inkscape:spray-origin="#path879"
   xlink:href="#path879"
   x="0"
   y="0"
   width="100%"
   height="100%"
   transform="translate(7.6419314,6.6437018)" /><use
   id="use1217"
   inkscape:spray-origin="#path879"
   xlink:href="#path879"
   x="0"
   y="0"
   width="100%"
   height="100%"
   transform="translate(6.2910379,9.7150454)" /><use
   id="use1219"
   inkscape:spray-origin="#path879"
   xlink:href="#path879"
   x="0"
   y="0"
   width="100%"
   height="100%"
   transform="translate(4.5382968,10.569407)" /><use
   id="use1221"
   inkscape:spray-origin="#path879"
   xlink:href="#path879"
   x="0"
   y="0"
   width="100%"
   height="100%"
   transform="translate(6.1759016,11.389573)" /><use
   id="use1223"
   inkscape:spray-origin="#path879"
   xlink:href="#path879"
   x="0"
   y="0"
   width="100%"
   height="100%"
   transform="translate(1.9171452,7.3303787)" /><use
   id="use1225"
   inkscape:spray-origin="#path879"
   xlink:href="#path879"
   x="0"
   y="0"
   width="100%"
   height="100%"
   transform="translate(7.9806967,13.825242)" /><use
   id="use1227"
   inkscape:spray-origin="#path879"
   xlink:href="#path879"
   x="0"
   y="0"
   width="100%"
   height="100%"
   transform="translate(4.8062743,16.517956)" /><use
   id="use1229"
   inkscape:spray-origin="#path879"
   xlink:href="#path879"
   x="0"
   y="0"
   width="100%"
   height="100%"
   transform="translate(8.409196,12.276345)" /><use
   id="use1231"
   inkscape:spray-origin="#path879"
   xlink:href="#path879"
   x="0"
   y="0"
   width="100%"
   height="100%"
   transform="translate(4.2414554,11.155271)" /><use
   id="use1233"
   inkscape:spray-origin="#path879"
   xlink:href="#path879"
   x="0"
   y="0"
   width="100%"
   height="100%"
   transform="translate(2.6531252,13.123943)" /><use
   id="use1235"
   inkscape:spray-origin="#path879"
   xlink:href="#path879"
   x="0"
   y="0"
   width="100%"
   height="100%"
   transform="translate(-0.64368356,13.008931)" /><use
   id="use1237"
   inkscape:spray-origin="#path879"
   xlink:href="#path879"
   x="0"
   y="0"
   width="100%"
   height="100%"
   transform="translate(3.1096169,12.93962)" /><use
   id="use1239"
   inkscape:spray-origin="#path879"
   xlink:href="#path879"
   x="0"
   y="0"
   width="100%"
   height="100%"
   transform="translate(2.6042093,10.948114)" /><use
   id="use1241"
   inkscape:spray-origin="#path879"
   xlink:href="#path879"
   x="0"
   y="0"
   width="100%"
   height="100%"
   transform="translate(-0.68497324,7.8236105)" /><use
   id="use1243"
   inkscape:spray-origin="#path879"
   xlink:href="#path879"
   x="0"
   y="0"
   width="100%"
   height="100%"
   transform="translate(-0.29515647,9.1884796)" /><use
   id="use1245"
   inkscape:spray-origin="#path879"
   xlink:href="#path879"
   x="0"
   y="0"
   width="100%"
   height="100%"
   transform="translate(7.3314368,13.097312)" /><use
   id="use1247"
   inkscape:spray-origin="#path879"
   xlink:href="#path879"
   x="0"
   y="0"
   width="100%"
   height="100%"
   transform="translate(18.595868,5.6286896)" /><use
   id="use1249"
   inkscape:spray-origin="#path879"
   xlink:href="#path879"
   x="0"
   y="0"
   width="100%"
   height="100%"
   transform="translate(14.235958,6.1718216)" /><use
   id="use1251"
   inkscape:spray-origin="#path879"
   xlink:href="#path879"
   x="0"
   y="0"
   width="100%"
   height="100%"
   transform="translate(17.836622,3.1623987)" /><use
   id="use1253"
   inkscape:spray-origin="#path879"
   xlink:href="#path879"
   x="0"
   y="0"
   width="100%"
   height="100%"
   transform="translate(12.901664,7.4207809)" /><use
   id="use1255"
   inkscape:spray-origin="#path879"
   xlink:href="#path879"
   x="0"
   y="0"
   width="100%"
   height="100%"
   transform="translate(9.9373417,1.2892619)" /><use
   id="use1257"
   inkscape:spray-origin="#path879"
   xlink:href="#path879"
   x="0"
   y="0"
   width="100%"
   height="100%"
   transform="translate(9.5570379,-1.3088535)" /><use
   id="use1259"
   inkscape:spray-origin="#path879"
   xlink:href="#path879"
   x="0"
   y="0"
   width="100%"
   height="100%"
   transform="translate(6.5630488,1.9903858)" /><use
   id="use1261"
   inkscape:spray-origin="#path879"
   xlink:href="#path879"
   x="0"
   y="0"
   width="100%"
   height="100%"
   transform="translate(11.104188,4.8828849)" /><use
   id="use1263"
   inkscape:spray-origin="#path879"
   xlink:href="#path879"
   x="0"
   y="0"
   width="100%"
   height="100%"
   transform="translate(7.0324854,3.6962726)" /><use
   id="use1265"
   inkscape:spray-origin="#path879"
   xlink:href="#path879"
   x="0"
   y="0"
   width="100%"
   height="100%"
   transform="translate(9.8509011,4.0669031)" /><use
   id="use1267"
   inkscape:spray-origin="#path879"
   xlink:href="#path879"
   x="0"
   y="0"
   width="100%"
   height="100%"
   transform="translate(7.3154834,4.6052383)" /><use
   id="use1269"
   inkscape:spray-origin="#path879"
   xlink:href="#path879"
   x="0"
   y="0"
   width="100%"
   height="100%"
   transform="translate(-1.3531238,-2.5200403)" /><use
   id="use1271"
   inkscape:spray-origin="#path879"
   xlink:href="#path879"
   x="0"
   y="0"
   width="100%"
   height="100%"
   transform="translate(3.0640149,-1.0447747)" /><use
   id="use1273"
   inkscape:spray-origin="#path879"
   xlink:href="#path879"
   x="0"
   y="0"
   width="100%"
   height="100%"
   transform="translate(3.4554195,-1.9450913)" /><use
   id="use1275"
   inkscape:spray-origin="#path879"
   xlink:href="#path879"
   x="0"
   y="0"
   width="100%"
   height="100%"
   transform="translate(4.9270269,-4.296397)" /><use
   id="use1277"
   inkscape:spray-origin="#path879"
   xlink:href="#path879"
   x="0"
   y="0"
   width="100%"
   height="100%"
   transform="translate(1.1308284,2.3014597)" /><use
   id="use1279"
   inkscape:spray-origin="#path879"
   xlink:href="#path879"
   x="0"
   y="0"
   width="100%"
   height="100%"
   transform="translate(3.5647219,-6.1568602)" /><use
   id="use1281"
   inkscape:spray-origin="#path879"
   xlink:href="#path879"
   x="0"
   y="0"
   width="100%"
   height="100%"
   transform="translate(8.5114901,0.36928772)" /><use
   id="use1283"
   inkscape:spray-origin="#path879"
   xlink:href="#path879"
   x="0"
   y="0"
   width="100%"
   height="100%"
   transform="translate(6.7717973,-4.0574521)" /><use
   id="use1285"
   inkscape:spray-origin="#path879"
   xlink:href="#path879"
   x="0"
   y="0"
   width="100%"
   height="100%"
   transform="translate(8.4477681,-4.8253633)" /><use
   id="use1287"
   inkscape:spray-origin="#path879"
   xlink:href="#path879"
   x="0"
   y="0"
   width="100%"
   height="100%"
   transform="translate(14.116296,-7.4974413)" /><use
   id="use1289"
   inkscape:spray-origin="#path879"
   xlink:href="#path879"
   x="0"
   y="0"
   width="100%"
   height="100%"
   transform="translate(1.8545346,-13.322083)" /><use
   id="use1291"
   inkscape:spray-origin="#path879"
   xlink:href="#path879"
   x="0"
   y="0"
   width="100%"
   height="100%"
   transform="translate(-1.9182784,-13.820433)" /><use
   id="use1293"
   inkscape:spray-origin="#path879"
   xlink:href="#path879"
   x="0"
   y="0"
   width="100%"
   height="100%"
   transform="translate(3.2749112,-12.805641)" /><use
   id="use1295"
   inkscape:spray-origin="#path879"
   xlink:href="#path879"
   x="0"
   y="0"
   width="100%"
   height="100%"
   transform="translate(0.36850026,-12.613824)" /><use
   id="use1297"
   inkscape:spray-origin="#path879"
   xlink:href="#path879"
   x="0"
   y="0"
   width="100%"
   height="100%"
   transform="translate(-4.2719448,-18.957068)" /><use
   id="use1299"
   inkscape:spray-origin="#path879"
   xlink:href="#path879"
   x="0"
   y="0"
   width="100%"
   height="100%"
   transform="translate(-5.3676151,-9.7369656)" /><use
   id="use1301"
   inkscape:spray-origin="#path879"
   xlink:href="#path879"
   x="0"
   y="0"
   width="100%"
   height="100%"
   transform="translate(-3.8285193,-13.45819)" /><use
   id="use1303"
   inkscape:spray-origin="#path879"
   xlink:href="#path879"
   x="0"
   y="0"
   width="100%"
   height="100%"
   transform="translate(-3.9907381,-17.915114)" /><use
   id="use1305"
   inkscape:spray-origin="#path879"
   xlink:href="#path879"
   x="0"
   y="0"
   width="100%"
   height="100%"
   transform="translate(-9.2949443,-11.771955)" /><use
   id="use1307"
   inkscape:spray-origin="#path879"
   xlink:href="#path879"
   x="0"
   y="0"
   width="100%"
   height="100%"
   transform="translate(-74.617009,-43.155282)" /></svg>