<?xml version="1.0" encoding="UTF-8" standalone="no"?>
<svg
   xmlns:dc="http://purl.org/dc/elements/1.1/"
   xmlns:cc="http://creativecommons.org/ns#"
   xmlns:rdf="http://www.w3.org/1999/02/22-rdf-syntax-ns#"
   xmlns:svg="http://www.w3.org/2000/svg"
   xmlns="http://www.w3.org/2000/svg"
   xmlns:sodipodi="http://sodipodi.sourceforge.net/DTD/sodipodi-0.dtd"
   xmlns:inkscape="http://www.inkscape.org/namespaces/inkscape"
   version="1.1"
   id="Layer_1"
   x="0px"
   y="0px"
   width="32px"
   height="32px"
   viewBox="0 0 32 32"
   enable-background="new 0 0 32 32"
   xml:space="preserve"
   sodipodi:docname="icon-video.svg.2019_04_16_23_34_50.0.svg"
   inkscape:version="0.92.4 (5da689c313, 2019-01-14)"><metadata
   id="metadata30"><rdf:RDF><cc:Work
       rdf:about=""><dc:format>image/svg+xml</dc:format><dc:type
         rdf:resource="http://purl.org/dc/dcmitype/StillImage" /></cc:Work></rdf:RDF></metadata><defs
   id="defs28" /><sodipodi:namedview
   pagecolor="#ffffff"
   bordercolor="#666666"
   borderopacity="1"
   objecttolerance="10"
   gridtolerance="10"
   guidetolerance="10"
   inkscape:pageopacity="0"
   inkscape:pageshadow="2"
   inkscape:window-width="1920"
   inkscape:window-height="1001"
   id="namedview26"
   showgrid="false"
   inkscape:zoom="6.3"
   inkscape:cx="-10.190476"
   inkscape:cy="16"
   inkscape:window-x="-9"
   inkscape:window-y="-9"
   inkscape:window-maximized="1"
   inkscape:current-layer="Layer_1" />
<g
   transform="translate(0 192)"
   id="g23">
  <path
   d="M26-177l6-4v16l-6-4V-177z M24-177v8c0,2.209-1.791,4-4,4H4c-2.209,0-4-1.791-4-4v-8c0-2.209,1.791-4,4-4h10 c0-1.105,0.895-2,2-2v-2H5c-0.553,0-1-0.447-1-1s0.447-1,1-1h12c0.553,0,1,0.447,1,1v3c1.105,0,2,0.895,2,2 C22.209-181,24-179.209,24-177z M12-177H4v8h8V-177z M20-176c0-0.553-0.447-1-1-1h-4c-0.553,0-1,0.447-1,1s0.447,1,1,1h4 C19.553-175,20-175.447,20-176z"
   id="path21" />
</g>
<path
   style="fill:#63d1bb;opacity:0;fill-opacity:0"
   d="M 2.6056317,26.65519 C 1.8280646,26.378051 0.81307162,25.413762 0.42900878,24.587302 0.16160351,24.011875 0.13362954,23.489283 0.13047016,19.010189 L 0.12698413,14.067997 0.57027587,13.21944 C 1.1180136,12.17095 2.0707573,11.419356 3.143846,11.18922 3.6322603,11.084473 5.9513078,11.015873 9.0038446,11.015873 h 5.0517114 l 0.09605,-0.480249 c 0.123,-0.6149969 0.753149,-1.2451462 1.368146,-1.3681456 C 15.998379,9.0717527 16,9.067746 16,7.9801587 V 6.8888889 h -5.689684 c -5.3104884,0 -5.7071928,-0.019346 -5.9523814,-0.2902764 C 4.0268679,6.232788 4.0211833,5.715778 4.3446713,5.3922903 4.5631878,5.1737737 5.3880987,5.1428571 11,5.1428571 c 5.611902,0 6.436813,0.030917 6.655329,0.2494332 0.196325,0.1963254 0.249433,0.6187727 0.249433,1.984127 0,1.7298737 0.0011,1.7346938 0.384646,1.7346938 0.526129,0 1.302152,0.688771 1.520113,1.3491959 0.149965,0.454399 0.277247,0.562766 0.764563,0.65094 1.207249,0.218437 2.314416,1.049318 2.939826,2.206213 0.331446,0.613117 0.343233,0.809354 0.343233,5.714286 0,4.901705 -0.01198,5.101573 -0.342606,5.714286 -0.448507,0.831176 -1.078312,1.413906 -1.958981,1.812554 -0.691396,0.31297 -0.996605,0.323219 -9.52381,0.319851 -7.09455,-0.0028 -8.9295571,-0.04626 -9.4261143,-0.223247 z M 12.031746,19.031746 V 14.984127 H 7.984127 3.9365079 v 4.047619 4.047619 h 4.0476191 4.047619 z m 7.817327,-2.480925 c 0.333297,-0.446768 0.285078,-0.901931 -0.140651,-1.327659 -0.192812,-0.192813 -0.7262,-0.239035 -2.758378,-0.239035 -2.42348,0 -2.528747,0.01342 -2.76644,0.352779 -0.338121,0.482734 -0.309896,1.012993 0.07437,1.397263 0.299504,0.299504 0.490869,0.318485 2.800575,0.277778 2.470194,-0.04354 2.480225,-0.04519 2.790519,-0.461126 z"
   id="path32"
   inkscape:connector-curvature="0" /><path
   style="fill:#63d1bb;stroke-width:0.15873016;opacity:0.63;fill-opacity:0"
   d="M 28.81746,24.813284 26,22.916222 l 0.0042,-3.926365 0.0042,-3.926365 2.932295,-1.944869 2.932295,-1.94487 v 7.778203 c 0,4.278012 -0.05357,7.773745 -0.119048,7.768297 -0.06548,-0.0054 -1.386905,-0.863585 -2.936508,-1.906969 z"
   id="path34"
   inkscape:connector-curvature="0" /><path
   style="opacity:0.62999998;fill:#63d1bb;fill-opacity:0;stroke-width:0.15873016"
   d="M 4.9539717,26.751278 C 2.6609913,26.655084 2.5310919,26.631614 1.9111671,26.201535 1.5550037,25.954443 1.0625016,25.462095 0.81671798,25.107429 0.24404305,24.281059 0.15274737,23.333232 0.13976716,18.079365 l -0.009804,-3.968254 0.46829697,-0.816498 C 1.1441505,12.342827 1.960089,11.61996 2.7918586,11.351231 3.1733848,11.227968 5.2597549,11.126946 8.713149,11.064522 l 5.332197,-0.09638 0.302724,-0.650735 C 14.570979,9.838236 14.828656,9.5840498 15.325397,9.3533143 L 16,9.0399621 V 7.9809883 6.9220144 L 10.404762,6.8532957 C 7.327381,6.8155003 4.6915625,6.7316775 4.5473876,6.6670225 4.2161659,6.5184871 4.0663798,5.9695598 4.2589078,5.609818 4.3826802,5.3785472 4.7562827,5.315641 6.5920283,5.2169738 9.6057611,5.0549923 17.399675,5.2091989 17.625759,5.4352818 c 0.09703,0.097029 0.20782,0.9584563 0.247673,1.9256972 0.06453,1.56629 0.102733,1.7501321 0.363655,1.7501321 0.400094,0 1.331553,0.8470241 1.573319,1.4307029 0.156,0.376618 0.348354,0.517458 0.894569,0.654997 0.956114,0.240752 1.991566,0.961228 2.537,1.765263 l 0.456438,0.672847 v 5.409181 5.409181 l -0.469732,0.622565 c -0.603248,0.799522 -0.807497,0.967314 -1.664219,1.367171 -0.674362,0.314746 -1.002408,0.330971 -7.460318,0.368984 -3.715216,0.02187 -7.8327932,-0.0055 -9.1501723,-0.06073 z M 12.031746,19.031746 V 14.984127 H 7.984127 3.9365079 v 4.047619 4.047619 h 4.0476191 4.047619 z m 7.705627,-2.373737 c 0.472368,-0.472368 0.496805,-0.931768 0.07215,-1.356422 -0.290911,-0.290911 -0.5291,-0.31746 -2.848143,-0.31746 -2.435195,0 -2.540005,0.01331 -2.777777,0.352779 -0.337035,0.481184 -0.310192,1.012697 0.07036,1.393253 0.289327,0.289327 0.529101,0.31746 2.705627,0.31746 2.323946,0 2.398646,-0.01048 2.777778,-0.38961 z"
   id="path4560"
   inkscape:connector-curvature="0" /><path
   style="opacity:0.62999998;fill:#63d1bb;fill-opacity:0;stroke-width:0.15873016"
   d="M 4.9539717,26.751278 C 2.6609913,26.655084 2.5310919,26.631614 1.9111671,26.201535 1.5550037,25.954443 1.0625016,25.462095 0.81671798,25.107429 0.24404305,24.281059 0.15274737,23.333232 0.13976716,18.079365 l -0.009804,-3.968254 0.46829697,-0.816498 C 1.1441505,12.342827 1.960089,11.61996 2.7918586,11.351231 3.1733848,11.227968 5.2597549,11.126946 8.713149,11.064522 l 5.332197,-0.09638 0.302724,-0.650735 C 14.570979,9.838236 14.828656,9.5840498 15.325397,9.3533143 L 16,9.0399621 V 7.9809883 6.9220144 L 10.404762,6.8532957 C 7.327381,6.8155003 4.6915625,6.7316775 4.5473876,6.6670225 4.2161659,6.5184871 4.0663798,5.9695598 4.2589078,5.609818 4.3826802,5.3785472 4.7562827,5.315641 6.5920283,5.2169738 9.6057611,5.0549923 17.399675,5.2091989 17.625759,5.4352818 c 0.09703,0.097029 0.20782,0.9584563 0.247673,1.9256972 0.06453,1.56629 0.102733,1.7501321 0.363655,1.7501321 0.400094,0 1.331553,0.8470241 1.573319,1.4307029 0.156,0.376618 0.348354,0.517458 0.894569,0.654997 0.956114,0.240752 1.991566,0.961228 2.537,1.765263 l 0.456438,0.672847 v 5.409181 5.409181 l -0.469732,0.622565 c -0.603248,0.799522 -0.807497,0.967314 -1.664219,1.367171 -0.674362,0.314746 -1.002408,0.330971 -7.460318,0.368984 -3.715216,0.02187 -7.8327932,-0.0055 -9.1501723,-0.06073 z M 12.031746,19.031746 V 14.984127 H 7.984127 3.9365079 v 4.047619 4.047619 h 4.0476191 4.047619 z m 7.705627,-2.373737 c 0.472368,-0.472368 0.496805,-0.931768 0.07215,-1.356422 -0.290911,-0.290911 -0.5291,-0.31746 -2.848143,-0.31746 -2.435195,0 -2.540005,0.01331 -2.777777,0.352779 -0.337035,0.481184 -0.310192,1.012697 0.07036,1.393253 0.289327,0.289327 0.529101,0.31746 2.705627,0.31746 2.323946,0 2.398646,-0.01048 2.777778,-0.38961 z"
   id="path4562"
   inkscape:connector-curvature="0" /><path
   style="opacity:0.62999998;fill:#63d1bb;fill-opacity:0;stroke-width:0.15873016"
   d="M 4.9539717,26.751278 C 2.6609913,26.655084 2.5310919,26.631614 1.9111671,26.201535 1.5550037,25.954443 1.0625016,25.462095 0.81671798,25.107429 0.24404305,24.281059 0.15274737,23.333232 0.13976716,18.079365 l -0.009804,-3.968254 0.46829697,-0.816498 C 1.1441505,12.342827 1.960089,11.61996 2.7918586,11.351231 3.1733848,11.227968 5.2597549,11.126946 8.713149,11.064522 l 5.332197,-0.09638 0.302724,-0.650735 C 14.570979,9.838236 14.828656,9.5840498 15.325397,9.3533143 L 16,9.0399621 V 7.9809883 6.9220144 L 10.404762,6.8532957 C 7.327381,6.8155003 4.6915625,6.7316775 4.5473876,6.6670225 4.2161659,6.5184871 4.0663798,5.9695598 4.2589078,5.609818 4.3826802,5.3785472 4.7562827,5.315641 6.5920283,5.2169738 9.6057611,5.0549923 17.399675,5.2091989 17.625759,5.4352818 c 0.09703,0.097029 0.20782,0.9584563 0.247673,1.9256972 0.06453,1.56629 0.102733,1.7501321 0.363655,1.7501321 0.400094,0 1.331553,0.8470241 1.573319,1.4307029 0.156,0.376618 0.348354,0.517458 0.894569,0.654997 0.956114,0.240752 1.991566,0.961228 2.537,1.765263 l 0.456438,0.672847 v 5.409181 5.409181 l -0.469732,0.622565 c -0.603248,0.799522 -0.807497,0.967314 -1.664219,1.367171 -0.674362,0.314746 -1.002408,0.330971 -7.460318,0.368984 -3.715216,0.02187 -7.8327932,-0.0055 -9.1501723,-0.06073 z M 12.031746,19.031746 V 14.984127 H 7.984127 3.9365079 v 4.047619 4.047619 h 4.0476191 4.047619 z m 7.705627,-2.373737 c 0.472368,-0.472368 0.496805,-0.931768 0.07215,-1.356422 -0.290911,-0.290911 -0.5291,-0.31746 -2.848143,-0.31746 -2.435195,0 -2.540005,0.01331 -2.777777,0.352779 -0.337035,0.481184 -0.310192,1.012697 0.07036,1.393253 0.289327,0.289327 0.529101,0.31746 2.705627,0.31746 2.323946,0 2.398646,-0.01048 2.777778,-0.38961 z"
   id="path4564"
   inkscape:connector-curvature="0" /><path
   style="opacity:0.62999998;fill:#63d1bb;fill-opacity:0;stroke-width:0.15873016"
   d="M 4.9539717,26.751278 C 2.6609913,26.655084 2.5310919,26.631614 1.9111671,26.201535 1.5550037,25.954443 1.0625016,25.462095 0.81671798,25.107429 0.24404305,24.281059 0.15274737,23.333232 0.13976716,18.079365 l -0.009804,-3.968254 0.46829697,-0.816498 C 1.1441505,12.342827 1.960089,11.61996 2.7918586,11.351231 3.1733848,11.227968 5.2597549,11.126946 8.713149,11.064522 l 5.332197,-0.09638 0.302724,-0.650735 C 14.570979,9.838236 14.828656,9.5840498 15.325397,9.3533143 L 16,9.0399621 V 7.9809883 6.9220144 L 10.404762,6.8532957 C 7.327381,6.8155003 4.6915625,6.7316775 4.5473876,6.6670225 4.2161659,6.5184871 4.0663798,5.9695598 4.2589078,5.609818 4.3826802,5.3785472 4.7562827,5.315641 6.5920283,5.2169738 9.6057611,5.0549923 17.399675,5.2091989 17.625759,5.4352818 c 0.09703,0.097029 0.20782,0.9584563 0.247673,1.9256972 0.06453,1.56629 0.102733,1.7501321 0.363655,1.7501321 0.400094,0 1.331553,0.8470241 1.573319,1.4307029 0.156,0.376618 0.348354,0.517458 0.894569,0.654997 0.956114,0.240752 1.991566,0.961228 2.537,1.765263 l 0.456438,0.672847 v 5.409181 5.409181 l -0.469732,0.622565 c -0.603248,0.799522 -0.807497,0.967314 -1.664219,1.367171 -0.674362,0.314746 -1.002408,0.330971 -7.460318,0.368984 -3.715216,0.02187 -7.8327932,-0.0055 -9.1501723,-0.06073 z M 12.031746,19.031746 V 14.984127 H 7.984127 3.9365079 v 4.047619 4.047619 h 4.0476191 4.047619 z m 7.705627,-2.373737 c 0.472368,-0.472368 0.496805,-0.931768 0.07215,-1.356422 -0.290911,-0.290911 -0.5291,-0.31746 -2.848143,-0.31746 -2.435195,0 -2.540005,0.01331 -2.777777,0.352779 -0.337035,0.481184 -0.310192,1.012697 0.07036,1.393253 0.289327,0.289327 0.529101,0.31746 2.705627,0.31746 2.323946,0 2.398646,-0.01048 2.777778,-0.38961 z"
   id="path4566"
   inkscape:connector-curvature="0" /><path
   style="opacity:0.62999998;fill:#63d1bb;fill-opacity:0;stroke-width:0.15873016"
   d="M 28.81746,24.813284 26,22.916222 l 0.0042,-3.926365 0.0042,-3.926365 2.932295,-1.944869 2.932295,-1.94487 v 7.778203 c 0,4.278012 -0.05357,7.773745 -0.119048,7.768297 -0.06548,-0.0054 -1.386905,-0.863585 -2.936508,-1.906969 z"
   id="path4568"
   inkscape:connector-curvature="0" /><path
   style="opacity:0.62999998;fill:#63d1bb;fill-opacity:0;stroke-width:0.15873016"
   d="M 28.81746,24.813284 26,22.916222 l 0.0042,-3.926365 0.0042,-3.926365 2.932295,-1.944869 2.932295,-1.94487 v 7.778203 c 0,4.278012 -0.05357,7.773745 -0.119048,7.768297 -0.06548,-0.0054 -1.386905,-0.863585 -2.936508,-1.906969 z"
   id="path4570"
   inkscape:connector-curvature="0" /><path
   style="opacity:0;fill:#63d1bb;fill-opacity:0;stroke-width:0.15873016"
   d="M 4.9539717,26.751278 C 2.6609913,26.655084 2.5310919,26.631614 1.9111671,26.201535 1.5550037,25.954443 1.0625016,25.462095 0.81671798,25.107429 0.24404305,24.281059 0.15274737,23.333232 0.13976716,18.079365 l -0.009804,-3.968254 0.46829697,-0.816498 C 1.1441505,12.342827 1.960089,11.61996 2.7918586,11.351231 3.1733848,11.227968 5.2597549,11.126946 8.713149,11.064522 l 5.332197,-0.09638 0.302724,-0.650735 C 14.570979,9.838236 14.828656,9.5840498 15.325397,9.3533143 L 16,9.0399621 V 7.9809883 6.9220144 L 10.404762,6.8532957 C 7.327381,6.8155003 4.6915625,6.7316775 4.5473876,6.6670225 4.2161659,6.5184871 4.0663798,5.9695598 4.2589078,5.609818 4.3826802,5.3785472 4.7562827,5.315641 6.5920283,5.2169738 9.6057611,5.0549923 17.399675,5.2091989 17.625759,5.4352818 c 0.09703,0.097029 0.20782,0.9584563 0.247673,1.9256972 0.06453,1.56629 0.102733,1.7501321 0.363655,1.7501321 0.400094,0 1.331553,0.8470241 1.573319,1.4307029 0.156,0.376618 0.348354,0.517458 0.894569,0.654997 0.956114,0.240752 1.991566,0.961228 2.537,1.765263 l 0.456438,0.672847 v 5.409181 5.409181 l -0.469732,0.622565 c -0.603248,0.799522 -0.807497,0.967314 -1.664219,1.367171 -0.674362,0.314746 -1.002408,0.330971 -7.460318,0.368984 -3.715216,0.02187 -7.8327932,-0.0055 -9.1501723,-0.06073 z M 12.031746,19.031746 V 14.984127 H 7.984127 3.9365079 v 4.047619 4.047619 h 4.0476191 4.047619 z m 7.705627,-2.373737 c 0.472368,-0.472368 0.496805,-0.931768 0.07215,-1.356422 -0.290911,-0.290911 -0.5291,-0.31746 -2.848143,-0.31746 -2.435195,0 -2.540005,0.01331 -2.777777,0.352779 -0.337035,0.481184 -0.310192,1.012697 0.07036,1.393253 0.289327,0.289327 0.529101,0.31746 2.705627,0.31746 2.323946,0 2.398646,-0.01048 2.777778,-0.38961 z"
   id="path5116"
   inkscape:connector-curvature="0" /><path
   style="opacity:0;fill:#63d1bb;fill-opacity:0;stroke-width:0.15873016"
   d="M 2.6056317,26.65519 C 1.8280646,26.378051 0.81307162,25.413762 0.42900878,24.587302 0.16160351,24.011875 0.13362954,23.489283 0.13047016,19.010189 L 0.12698413,14.067997 0.57027587,13.21944 C 1.1180136,12.17095 2.0707573,11.419356 3.143846,11.18922 3.6322603,11.084473 5.9513078,11.015873 9.0038446,11.015873 h 5.0517114 l 0.09605,-0.480249 c 0.123,-0.6149969 0.753149,-1.2451462 1.368146,-1.3681456 C 15.998379,9.0717527 16,9.067746 16,7.9801587 V 6.8888889 h -5.689684 c -5.3104884,0 -5.7071928,-0.019346 -5.9523814,-0.2902764 C 4.0268679,6.232788 4.0211833,5.715778 4.3446713,5.3922903 4.5631878,5.1737737 5.3880987,5.1428571 11,5.1428571 c 5.611902,0 6.436813,0.030917 6.655329,0.2494332 0.196325,0.1963254 0.249433,0.6187727 0.249433,1.984127 0,1.7298737 0.0011,1.7346938 0.384646,1.7346938 0.526129,0 1.302152,0.688771 1.520113,1.3491959 0.149965,0.454399 0.277247,0.562766 0.764563,0.65094 1.207249,0.218437 2.314416,1.049318 2.939826,2.206213 0.331446,0.613117 0.343233,0.809354 0.343233,5.714286 0,4.901705 -0.01198,5.101573 -0.342606,5.714286 -0.448507,0.831176 -1.078312,1.413906 -1.958981,1.812554 -0.691396,0.31297 -0.996605,0.323219 -9.52381,0.319851 -7.09455,-0.0028 -8.9295571,-0.04626 -9.4261143,-0.223247 z M 12.031746,19.031746 V 14.984127 H 7.984127 3.9365079 v 4.047619 4.047619 h 4.0476191 4.047619 z m 7.817327,-2.480925 c 0.333297,-0.446768 0.285078,-0.901931 -0.140651,-1.327659 -0.192812,-0.192813 -0.7262,-0.239035 -2.758378,-0.239035 -2.42348,0 -2.528747,0.01342 -2.76644,0.352779 -0.338121,0.482734 -0.309896,1.012993 0.07437,1.397263 0.299504,0.299504 0.490869,0.318485 2.800575,0.277778 2.470194,-0.04354 2.480225,-0.04519 2.790519,-0.461126 z"
   id="path5118"
   inkscape:connector-curvature="0" /><path
   style="opacity:0;fill:#63d1bb;fill-opacity:0;stroke-width:0.15873016"
   d="M 2.6056317,26.65519 C 1.8280646,26.378051 0.81307162,25.413762 0.42900878,24.587302 0.16160351,24.011875 0.13362954,23.489283 0.13047016,19.010189 L 0.12698413,14.067997 0.57027587,13.21944 C 1.1180136,12.17095 2.0707573,11.419356 3.143846,11.18922 3.6322603,11.084473 5.9513078,11.015873 9.0038446,11.015873 h 5.0517114 l 0.09605,-0.480249 c 0.123,-0.6149969 0.753149,-1.2451462 1.368146,-1.3681456 C 15.998379,9.0717527 16,9.067746 16,7.9801587 V 6.8888889 h -5.689684 c -5.3104884,0 -5.7071928,-0.019346 -5.9523814,-0.2902764 C 4.0268679,6.232788 4.0211833,5.715778 4.3446713,5.3922903 4.5631878,5.1737737 5.3880987,5.1428571 11,5.1428571 c 5.611902,0 6.436813,0.030917 6.655329,0.2494332 0.196325,0.1963254 0.249433,0.6187727 0.249433,1.984127 0,1.7298737 0.0011,1.7346938 0.384646,1.7346938 0.526129,0 1.302152,0.688771 1.520113,1.3491959 0.149965,0.454399 0.277247,0.562766 0.764563,0.65094 1.207249,0.218437 2.314416,1.049318 2.939826,2.206213 0.331446,0.613117 0.343233,0.809354 0.343233,5.714286 0,4.901705 -0.01198,5.101573 -0.342606,5.714286 -0.448507,0.831176 -1.078312,1.413906 -1.958981,1.812554 -0.691396,0.31297 -0.996605,0.323219 -9.52381,0.319851 -7.09455,-0.0028 -8.9295571,-0.04626 -9.4261143,-0.223247 z M 12.031746,19.031746 V 14.984127 H 7.984127 3.9365079 v 4.047619 4.047619 h 4.0476191 4.047619 z m 7.817327,-2.480925 c 0.333297,-0.446768 0.285078,-0.901931 -0.140651,-1.327659 -0.192812,-0.192813 -0.7262,-0.239035 -2.758378,-0.239035 -2.42348,0 -2.528747,0.01342 -2.76644,0.352779 -0.338121,0.482734 -0.309896,1.012993 0.07437,1.397263 0.299504,0.299504 0.490869,0.318485 2.800575,0.277778 2.470194,-0.04354 2.480225,-0.04519 2.790519,-0.461126 z"
   id="path5120"
   inkscape:connector-curvature="0" /><path
   style="opacity:0;fill:#63d1bb;fill-opacity:0;stroke-width:0.15873016"
   d="M 2.6056317,26.65519 C 1.8280646,26.378051 0.81307162,25.413762 0.42900878,24.587302 0.16160351,24.011875 0.13362954,23.489283 0.13047016,19.010189 L 0.12698413,14.067997 0.57027587,13.21944 C 1.1180136,12.17095 2.0707573,11.419356 3.143846,11.18922 3.6322603,11.084473 5.9513078,11.015873 9.0038446,11.015873 h 5.0517114 l 0.09605,-0.480249 c 0.123,-0.6149969 0.753149,-1.2451462 1.368146,-1.3681456 C 15.998379,9.0717527 16,9.067746 16,7.9801587 V 6.8888889 h -5.689684 c -5.3104884,0 -5.7071928,-0.019346 -5.9523814,-0.2902764 C 4.0268679,6.232788 4.0211833,5.715778 4.3446713,5.3922903 4.5631878,5.1737737 5.3880987,5.1428571 11,5.1428571 c 5.611902,0 6.436813,0.030917 6.655329,0.2494332 0.196325,0.1963254 0.249433,0.6187727 0.249433,1.984127 0,1.7298737 0.0011,1.7346938 0.384646,1.7346938 0.526129,0 1.302152,0.688771 1.520113,1.3491959 0.149965,0.454399 0.277247,0.562766 0.764563,0.65094 1.207249,0.218437 2.314416,1.049318 2.939826,2.206213 0.331446,0.613117 0.343233,0.809354 0.343233,5.714286 0,4.901705 -0.01198,5.101573 -0.342606,5.714286 -0.448507,0.831176 -1.078312,1.413906 -1.958981,1.812554 -0.691396,0.31297 -0.996605,0.323219 -9.52381,0.319851 -7.09455,-0.0028 -8.9295571,-0.04626 -9.4261143,-0.223247 z M 12.031746,19.031746 V 14.984127 H 7.984127 3.9365079 v 4.047619 4.047619 h 4.0476191 4.047619 z m 7.817327,-2.480925 c 0.333297,-0.446768 0.285078,-0.901931 -0.140651,-1.327659 -0.192812,-0.192813 -0.7262,-0.239035 -2.758378,-0.239035 -2.42348,0 -2.528747,0.01342 -2.76644,0.352779 -0.338121,0.482734 -0.309896,1.012993 0.07437,1.397263 0.299504,0.299504 0.490869,0.318485 2.800575,0.277778 2.470194,-0.04354 2.480225,-0.04519 2.790519,-0.461126 z"
   id="path5122"
   inkscape:connector-curvature="0" /><path
   style="opacity:0;fill:#63d1bb;fill-opacity:0;stroke-width:0.15873016"
   d="M 2.6056317,26.65519 C 1.8280646,26.378051 0.81307162,25.413762 0.42900878,24.587302 0.16160351,24.011875 0.13362954,23.489283 0.13047016,19.010189 L 0.12698413,14.067997 0.57027587,13.21944 C 1.1180136,12.17095 2.0707573,11.419356 3.143846,11.18922 3.6322603,11.084473 5.9513078,11.015873 9.0038446,11.015873 h 5.0517114 l 0.09605,-0.480249 c 0.123,-0.6149969 0.753149,-1.2451462 1.368146,-1.3681456 C 15.998379,9.0717527 16,9.067746 16,7.9801587 V 6.8888889 h -5.689684 c -5.3104884,0 -5.7071928,-0.019346 -5.9523814,-0.2902764 C 4.0268679,6.232788 4.0211833,5.715778 4.3446713,5.3922903 4.5631878,5.1737737 5.3880987,5.1428571 11,5.1428571 c 5.611902,0 6.436813,0.030917 6.655329,0.2494332 0.196325,0.1963254 0.249433,0.6187727 0.249433,1.984127 0,1.7298737 0.0011,1.7346938 0.384646,1.7346938 0.526129,0 1.302152,0.688771 1.520113,1.3491959 0.149965,0.454399 0.277247,0.562766 0.764563,0.65094 1.207249,0.218437 2.314416,1.049318 2.939826,2.206213 0.331446,0.613117 0.343233,0.809354 0.343233,5.714286 0,4.901705 -0.01198,5.101573 -0.342606,5.714286 -0.448507,0.831176 -1.078312,1.413906 -1.958981,1.812554 -0.691396,0.31297 -0.996605,0.323219 -9.52381,0.319851 -7.09455,-0.0028 -8.9295571,-0.04626 -9.4261143,-0.223247 z M 12.031746,19.031746 V 14.984127 H 7.984127 3.9365079 v 4.047619 4.047619 h 4.0476191 4.047619 z m 7.817327,-2.480925 c 0.333297,-0.446768 0.285078,-0.901931 -0.140651,-1.327659 -0.192812,-0.192813 -0.7262,-0.239035 -2.758378,-0.239035 -2.42348,0 -2.528747,0.01342 -2.76644,0.352779 -0.338121,0.482734 -0.309896,1.012993 0.07437,1.397263 0.299504,0.299504 0.490869,0.318485 2.800575,0.277778 2.470194,-0.04354 2.480225,-0.04519 2.790519,-0.461126 z"
   id="path5124"
   inkscape:connector-curvature="0" /><path
   style="opacity:0;fill:#63d1bb;fill-opacity:0;stroke-width:0.15873016"
   d="M 2.6056317,26.65519 C 1.8280646,26.378051 0.81307162,25.413762 0.42900878,24.587302 0.16160351,24.011875 0.13362954,23.489283 0.13047016,19.010189 L 0.12698413,14.067997 0.57027587,13.21944 C 1.1180136,12.17095 2.0707573,11.419356 3.143846,11.18922 3.6322603,11.084473 5.9513078,11.015873 9.0038446,11.015873 h 5.0517114 l 0.09605,-0.480249 c 0.123,-0.6149969 0.753149,-1.2451462 1.368146,-1.3681456 C 15.998379,9.0717527 16,9.067746 16,7.9801587 V 6.8888889 h -5.689684 c -5.3104884,0 -5.7071928,-0.019346 -5.9523814,-0.2902764 C 4.0268679,6.232788 4.0211833,5.715778 4.3446713,5.3922903 4.5631878,5.1737737 5.3880987,5.1428571 11,5.1428571 c 5.611902,0 6.436813,0.030917 6.655329,0.2494332 0.196325,0.1963254 0.249433,0.6187727 0.249433,1.984127 0,1.7298737 0.0011,1.7346938 0.384646,1.7346938 0.526129,0 1.302152,0.688771 1.520113,1.3491959 0.149965,0.454399 0.277247,0.562766 0.764563,0.65094 1.207249,0.218437 2.314416,1.049318 2.939826,2.206213 0.331446,0.613117 0.343233,0.809354 0.343233,5.714286 0,4.901705 -0.01198,5.101573 -0.342606,5.714286 -0.448507,0.831176 -1.078312,1.413906 -1.958981,1.812554 -0.691396,0.31297 -0.996605,0.323219 -9.52381,0.319851 -7.09455,-0.0028 -8.9295571,-0.04626 -9.4261143,-0.223247 z M 12.031746,19.031746 V 14.984127 H 7.984127 3.9365079 v 4.047619 4.047619 h 4.0476191 4.047619 z m 7.817327,-2.480925 c 0.333297,-0.446768 0.285078,-0.901931 -0.140651,-1.327659 -0.192812,-0.192813 -0.7262,-0.239035 -2.758378,-0.239035 -2.42348,0 -2.528747,0.01342 -2.76644,0.352779 -0.338121,0.482734 -0.309896,1.012993 0.07437,1.397263 0.299504,0.299504 0.490869,0.318485 2.800575,0.277778 2.470194,-0.04354 2.480225,-0.04519 2.790519,-0.461126 z"
   id="path5126"
   inkscape:connector-curvature="0" /><path
   style="opacity:0;fill:#63d1bb;fill-opacity:0;stroke-width:0.15873016"
   d="M 2.6056317,26.65519 C 1.8280646,26.378051 0.81307162,25.413762 0.42900878,24.587302 0.16160351,24.011875 0.13362954,23.489283 0.13047016,19.010189 L 0.12698413,14.067997 0.57027587,13.21944 C 1.1180136,12.17095 2.0707573,11.419356 3.143846,11.18922 3.6322603,11.084473 5.9513078,11.015873 9.0038446,11.015873 h 5.0517114 l 0.09605,-0.480249 c 0.123,-0.6149969 0.753149,-1.2451462 1.368146,-1.3681456 C 15.998379,9.0717527 16,9.067746 16,7.9801587 V 6.8888889 h -5.689684 c -5.3104884,0 -5.7071928,-0.019346 -5.9523814,-0.2902764 C 4.0268679,6.232788 4.0211833,5.715778 4.3446713,5.3922903 4.5631878,5.1737737 5.3880987,5.1428571 11,5.1428571 c 5.611902,0 6.436813,0.030917 6.655329,0.2494332 0.196325,0.1963254 0.249433,0.6187727 0.249433,1.984127 0,1.7298737 0.0011,1.7346938 0.384646,1.7346938 0.526129,0 1.302152,0.688771 1.520113,1.3491959 0.149965,0.454399 0.277247,0.562766 0.764563,0.65094 1.207249,0.218437 2.314416,1.049318 2.939826,2.206213 0.331446,0.613117 0.343233,0.809354 0.343233,5.714286 0,4.901705 -0.01198,5.101573 -0.342606,5.714286 -0.448507,0.831176 -1.078312,1.413906 -1.958981,1.812554 -0.691396,0.31297 -0.996605,0.323219 -9.52381,0.319851 -7.09455,-0.0028 -8.9295571,-0.04626 -9.4261143,-0.223247 z M 12.031746,19.031746 V 14.984127 H 7.984127 3.9365079 v 4.047619 4.047619 h 4.0476191 4.047619 z m 7.817327,-2.480925 c 0.333297,-0.446768 0.285078,-0.901931 -0.140651,-1.327659 -0.192812,-0.192813 -0.7262,-0.239035 -2.758378,-0.239035 -2.42348,0 -2.528747,0.01342 -2.76644,0.352779 -0.338121,0.482734 -0.309896,1.012993 0.07437,1.397263 0.299504,0.299504 0.490869,0.318485 2.800575,0.277778 2.470194,-0.04354 2.480225,-0.04519 2.790519,-0.461126 z"
   id="path5128"
   inkscape:connector-curvature="0" /><path
   style="opacity:0;fill:#63d1bb;fill-opacity:0;stroke-width:0.15873016"
   d="M 2.6056317,26.65519 C 1.8280646,26.378051 0.81307162,25.413762 0.42900878,24.587302 0.16160351,24.011875 0.13362954,23.489283 0.13047016,19.010189 L 0.12698413,14.067997 0.57027587,13.21944 C 1.1180136,12.17095 2.0707573,11.419356 3.143846,11.18922 3.6322603,11.084473 5.9513078,11.015873 9.0038446,11.015873 h 5.0517114 l 0.09605,-0.480249 c 0.123,-0.6149969 0.753149,-1.2451462 1.368146,-1.3681456 C 15.998379,9.0717527 16,9.067746 16,7.9801587 V 6.8888889 h -5.689684 c -5.3104884,0 -5.7071928,-0.019346 -5.9523814,-0.2902764 C 4.0268679,6.232788 4.0211833,5.715778 4.3446713,5.3922903 4.5631878,5.1737737 5.3880987,5.1428571 11,5.1428571 c 5.611902,0 6.436813,0.030917 6.655329,0.2494332 0.196325,0.1963254 0.249433,0.6187727 0.249433,1.984127 0,1.7298737 0.0011,1.7346938 0.384646,1.7346938 0.526129,0 1.302152,0.688771 1.520113,1.3491959 0.149965,0.454399 0.277247,0.562766 0.764563,0.65094 1.207249,0.218437 2.314416,1.049318 2.939826,2.206213 0.331446,0.613117 0.343233,0.809354 0.343233,5.714286 0,4.901705 -0.01198,5.101573 -0.342606,5.714286 -0.448507,0.831176 -1.078312,1.413906 -1.958981,1.812554 -0.691396,0.31297 -0.996605,0.323219 -9.52381,0.319851 -7.09455,-0.0028 -8.9295571,-0.04626 -9.4261143,-0.223247 z M 12.031746,19.031746 V 14.984127 H 7.984127 3.9365079 v 4.047619 4.047619 h 4.0476191 4.047619 z m 7.817327,-2.480925 c 0.333297,-0.446768 0.285078,-0.901931 -0.140651,-1.327659 -0.192812,-0.192813 -0.7262,-0.239035 -2.758378,-0.239035 -2.42348,0 -2.528747,0.01342 -2.76644,0.352779 -0.338121,0.482734 -0.309896,1.012993 0.07437,1.397263 0.299504,0.299504 0.490869,0.318485 2.800575,0.277778 2.470194,-0.04354 2.480225,-0.04519 2.790519,-0.461126 z"
   id="path5130"
   inkscape:connector-curvature="0" /><path
   style="opacity:0;fill:#63d1bb;fill-opacity:0;stroke-width:0.15873016"
   d="M 28.81746,24.813284 26,22.916222 l 0.0042,-3.926365 0.0042,-3.926365 2.932295,-1.944869 2.932295,-1.94487 v 7.778203 c 0,4.278012 -0.05357,7.773745 -0.119048,7.768297 -0.06548,-0.0054 -1.386905,-0.863585 -2.936508,-1.906969 z"
   id="path5132"
   inkscape:connector-curvature="0" /><path
   style="opacity:0;fill:#63d1bb;fill-opacity:0;stroke-width:0.15873016"
   d="M 28.81746,24.813284 26,22.916222 l 0.0042,-3.926365 0.0042,-3.926365 2.932295,-1.944869 2.932295,-1.94487 v 7.778203 c 0,4.278012 -0.05357,7.773745 -0.119048,7.768297 -0.06548,-0.0054 -1.386905,-0.863585 -2.936508,-1.906969 z"
   id="path5134"
   inkscape:connector-curvature="0" /><path
   style="opacity:0;fill:#63d1bb;fill-opacity:0;stroke-width:0.15873016"
   d="M 28.81746,24.813284 26,22.916222 l 0.0042,-3.926365 0.0042,-3.926365 2.932295,-1.944869 2.932295,-1.94487 v 7.778203 c 0,4.278012 -0.05357,7.773745 -0.119048,7.768297 -0.06548,-0.0054 -1.386905,-0.863585 -2.936508,-1.906969 z"
   id="path5136"
   inkscape:connector-curvature="0" /><path
   style="opacity:0;fill:#800000;fill-opacity:0;stroke-width:0.15873016"
   d="M 2.6056317,26.65519 C 1.8280646,26.378051 0.81307162,25.413762 0.42900878,24.587302 0.16160351,24.011875 0.13362954,23.489283 0.13047016,19.010189 L 0.12698413,14.067997 0.57027587,13.21944 C 1.1180136,12.17095 2.0707573,11.419356 3.143846,11.18922 3.6322603,11.084473 5.9513078,11.015873 9.0038446,11.015873 h 5.0517114 l 0.09605,-0.480249 c 0.123,-0.6149969 0.753149,-1.2451462 1.368146,-1.3681456 C 15.998379,9.0717527 16,9.067746 16,7.9801587 V 6.8888889 h -5.689684 c -5.3104884,0 -5.7071928,-0.019346 -5.9523814,-0.2902764 C 4.0268679,6.232788 4.0211833,5.715778 4.3446713,5.3922903 4.5631878,5.1737737 5.3880987,5.1428571 11,5.1428571 c 5.611902,0 6.436813,0.030917 6.655329,0.2494332 0.196325,0.1963254 0.249433,0.6187727 0.249433,1.984127 0,1.7298737 0.0011,1.7346938 0.384646,1.7346938 0.526129,0 1.302152,0.688771 1.520113,1.3491959 0.149965,0.454399 0.277247,0.562766 0.764563,0.65094 1.207249,0.218437 2.314416,1.049318 2.939826,2.206213 0.331446,0.613117 0.343233,0.809354 0.343233,5.714286 0,4.901705 -0.01198,5.101573 -0.342606,5.714286 -0.448507,0.831176 -1.078312,1.413906 -1.958981,1.812554 -0.691396,0.31297 -0.996605,0.323219 -9.52381,0.319851 -7.09455,-0.0028 -8.9295571,-0.04626 -9.4261143,-0.223247 z M 12.031746,19.031746 V 14.984127 H 7.984127 3.9365079 v 4.047619 4.047619 h 4.0476191 4.047619 z m 7.817327,-2.480925 c 0.333297,-0.446768 0.285078,-0.901931 -0.140651,-1.327659 -0.192812,-0.192813 -0.7262,-0.239035 -2.758378,-0.239035 -2.42348,0 -2.528747,0.01342 -2.76644,0.352779 -0.338121,0.482734 -0.309896,1.012993 0.07437,1.397263 0.299504,0.299504 0.490869,0.318485 2.800575,0.277778 2.470194,-0.04354 2.480225,-0.04519 2.790519,-0.461126 z"
   id="path5138"
   inkscape:connector-curvature="0" /><path
   style="opacity:0;fill:#800000;fill-opacity:0;stroke-width:0.15873016"
   d="M 2.6056317,26.65519 C 1.8280646,26.378051 0.81307162,25.413762 0.42900878,24.587302 0.16160351,24.011875 0.13362954,23.489283 0.13047016,19.010189 L 0.12698413,14.067997 0.57027587,13.21944 C 1.1180136,12.17095 2.0707573,11.419356 3.143846,11.18922 3.6322603,11.084473 5.9513078,11.015873 9.0038446,11.015873 h 5.0517114 l 0.09605,-0.480249 c 0.123,-0.6149969 0.753149,-1.2451462 1.368146,-1.3681456 C 15.998379,9.0717527 16,9.067746 16,7.9801587 V 6.8888889 h -5.689684 c -5.3104884,0 -5.7071928,-0.019346 -5.9523814,-0.2902764 C 4.0268679,6.232788 4.0211833,5.715778 4.3446713,5.3922903 4.5631878,5.1737737 5.3880987,5.1428571 11,5.1428571 c 5.611902,0 6.436813,0.030917 6.655329,0.2494332 0.196325,0.1963254 0.249433,0.6187727 0.249433,1.984127 0,1.7298737 0.0011,1.7346938 0.384646,1.7346938 0.526129,0 1.302152,0.688771 1.520113,1.3491959 0.149965,0.454399 0.277247,0.562766 0.764563,0.65094 1.207249,0.218437 2.314416,1.049318 2.939826,2.206213 0.331446,0.613117 0.343233,0.809354 0.343233,5.714286 0,4.901705 -0.01198,5.101573 -0.342606,5.714286 -0.448507,0.831176 -1.078312,1.413906 -1.958981,1.812554 -0.691396,0.31297 -0.996605,0.323219 -9.52381,0.319851 -7.09455,-0.0028 -8.9295571,-0.04626 -9.4261143,-0.223247 z M 12.031746,19.031746 V 14.984127 H 7.984127 3.9365079 v 4.047619 4.047619 h 4.0476191 4.047619 z m 7.817327,-2.480925 c 0.333297,-0.446768 0.285078,-0.901931 -0.140651,-1.327659 -0.192812,-0.192813 -0.7262,-0.239035 -2.758378,-0.239035 -2.42348,0 -2.528747,0.01342 -2.76644,0.352779 -0.338121,0.482734 -0.309896,1.012993 0.07437,1.397263 0.299504,0.299504 0.490869,0.318485 2.800575,0.277778 2.470194,-0.04354 2.480225,-0.04519 2.790519,-0.461126 z"
   id="path5140"
   inkscape:connector-curvature="0" /><path
   style="opacity:0;fill:#800000;fill-opacity:0;stroke-width:0.15873016"
   d="M 2.6056317,26.65519 C 1.8280646,26.378051 0.81307162,25.413762 0.42900878,24.587302 0.16160351,24.011875 0.13362954,23.489283 0.13047016,19.010189 L 0.12698413,14.067997 0.57027587,13.21944 C 1.1180136,12.17095 2.0707573,11.419356 3.143846,11.18922 3.6322603,11.084473 5.9513078,11.015873 9.0038446,11.015873 h 5.0517114 l 0.09605,-0.480249 c 0.123,-0.6149969 0.753149,-1.2451462 1.368146,-1.3681456 C 15.998379,9.0717527 16,9.067746 16,7.9801587 V 6.8888889 h -5.689684 c -5.3104884,0 -5.7071928,-0.019346 -5.9523814,-0.2902764 C 4.0268679,6.232788 4.0211833,5.715778 4.3446713,5.3922903 4.5631878,5.1737737 5.3880987,5.1428571 11,5.1428571 c 5.611902,0 6.436813,0.030917 6.655329,0.2494332 0.196325,0.1963254 0.249433,0.6187727 0.249433,1.984127 0,1.7298737 0.0011,1.7346938 0.384646,1.7346938 0.526129,0 1.302152,0.688771 1.520113,1.3491959 0.149965,0.454399 0.277247,0.562766 0.764563,0.65094 1.207249,0.218437 2.314416,1.049318 2.939826,2.206213 0.331446,0.613117 0.343233,0.809354 0.343233,5.714286 0,4.901705 -0.01198,5.101573 -0.342606,5.714286 -0.448507,0.831176 -1.078312,1.413906 -1.958981,1.812554 -0.691396,0.31297 -0.996605,0.323219 -9.52381,0.319851 -7.09455,-0.0028 -8.9295571,-0.04626 -9.4261143,-0.223247 z M 12.031746,19.031746 V 14.984127 H 7.984127 3.9365079 v 4.047619 4.047619 h 4.0476191 4.047619 z m 7.817327,-2.480925 c 0.333297,-0.446768 0.285078,-0.901931 -0.140651,-1.327659 -0.192812,-0.192813 -0.7262,-0.239035 -2.758378,-0.239035 -2.42348,0 -2.528747,0.01342 -2.76644,0.352779 -0.338121,0.482734 -0.309896,1.012993 0.07437,1.397263 0.299504,0.299504 0.490869,0.318485 2.800575,0.277778 2.470194,-0.04354 2.480225,-0.04519 2.790519,-0.461126 z"
   id="path5142"
   inkscape:connector-curvature="0" /><path
   style="opacity:0;fill:#800000;fill-opacity:0;stroke-width:0.15873016"
   d="M 2.6056317,26.65519 C 1.8280646,26.378051 0.81307162,25.413762 0.42900878,24.587302 0.16160351,24.011875 0.13362954,23.489283 0.13047016,19.010189 L 0.12698413,14.067997 0.57027587,13.21944 C 1.1180136,12.17095 2.0707573,11.419356 3.143846,11.18922 3.6322603,11.084473 5.9513078,11.015873 9.0038446,11.015873 h 5.0517114 l 0.09605,-0.480249 c 0.123,-0.6149969 0.753149,-1.2451462 1.368146,-1.3681456 C 15.998379,9.0717527 16,9.067746 16,7.9801587 V 6.8888889 h -5.689684 c -5.3104884,0 -5.7071928,-0.019346 -5.9523814,-0.2902764 C 4.0268679,6.232788 4.0211833,5.715778 4.3446713,5.3922903 4.5631878,5.1737737 5.3880987,5.1428571 11,5.1428571 c 5.611902,0 6.436813,0.030917 6.655329,0.2494332 0.196325,0.1963254 0.249433,0.6187727 0.249433,1.984127 0,1.7298737 0.0011,1.7346938 0.384646,1.7346938 0.526129,0 1.302152,0.688771 1.520113,1.3491959 0.149965,0.454399 0.277247,0.562766 0.764563,0.65094 1.207249,0.218437 2.314416,1.049318 2.939826,2.206213 0.331446,0.613117 0.343233,0.809354 0.343233,5.714286 0,4.901705 -0.01198,5.101573 -0.342606,5.714286 -0.448507,0.831176 -1.078312,1.413906 -1.958981,1.812554 -0.691396,0.31297 -0.996605,0.323219 -9.52381,0.319851 -7.09455,-0.0028 -8.9295571,-0.04626 -9.4261143,-0.223247 z M 12.031746,19.031746 V 14.984127 H 7.984127 3.9365079 v 4.047619 4.047619 h 4.0476191 4.047619 z m 7.817327,-2.480925 c 0.333297,-0.446768 0.285078,-0.901931 -0.140651,-1.327659 -0.192812,-0.192813 -0.7262,-0.239035 -2.758378,-0.239035 -2.42348,0 -2.528747,0.01342 -2.76644,0.352779 -0.338121,0.482734 -0.309896,1.012993 0.07437,1.397263 0.299504,0.299504 0.490869,0.318485 2.800575,0.277778 2.470194,-0.04354 2.480225,-0.04519 2.790519,-0.461126 z"
   id="path5144"
   inkscape:connector-curvature="0" /><path
   style="opacity:0;fill:#800000;fill-opacity:0;stroke-width:0.15873016"
   d="M 2.6056317,26.65519 C 1.8280646,26.378051 0.81307162,25.413762 0.42900878,24.587302 0.16160351,24.011875 0.13362954,23.489283 0.13047016,19.010189 L 0.12698413,14.067997 0.57027587,13.21944 C 1.1180136,12.17095 2.0707573,11.419356 3.143846,11.18922 3.6322603,11.084473 5.9513078,11.015873 9.0038446,11.015873 h 5.0517114 l 0.09605,-0.480249 c 0.123,-0.6149969 0.753149,-1.2451462 1.368146,-1.3681456 C 15.998379,9.0717527 16,9.067746 16,7.9801587 V 6.8888889 h -5.689684 c -5.3104884,0 -5.7071928,-0.019346 -5.9523814,-0.2902764 C 4.0268679,6.232788 4.0211833,5.715778 4.3446713,5.3922903 4.5631878,5.1737737 5.3880987,5.1428571 11,5.1428571 c 5.611902,0 6.436813,0.030917 6.655329,0.2494332 0.196325,0.1963254 0.249433,0.6187727 0.249433,1.984127 0,1.7298737 0.0011,1.7346938 0.384646,1.7346938 0.526129,0 1.302152,0.688771 1.520113,1.3491959 0.149965,0.454399 0.277247,0.562766 0.764563,0.65094 1.207249,0.218437 2.314416,1.049318 2.939826,2.206213 0.331446,0.613117 0.343233,0.809354 0.343233,5.714286 0,4.901705 -0.01198,5.101573 -0.342606,5.714286 -0.448507,0.831176 -1.078312,1.413906 -1.958981,1.812554 -0.691396,0.31297 -0.996605,0.323219 -9.52381,0.319851 -7.09455,-0.0028 -8.9295571,-0.04626 -9.4261143,-0.223247 z M 12.031746,19.031746 V 14.984127 H 7.984127 3.9365079 v 4.047619 4.047619 h 4.0476191 4.047619 z m 7.817327,-2.480925 c 0.333297,-0.446768 0.285078,-0.901931 -0.140651,-1.327659 -0.192812,-0.192813 -0.7262,-0.239035 -2.758378,-0.239035 -2.42348,0 -2.528747,0.01342 -2.76644,0.352779 -0.338121,0.482734 -0.309896,1.012993 0.07437,1.397263 0.299504,0.299504 0.490869,0.318485 2.800575,0.277778 2.470194,-0.04354 2.480225,-0.04519 2.790519,-0.461126 z"
   id="path5146"
   inkscape:connector-curvature="0" /><path
   style="opacity:0;fill:#800000;fill-opacity:0;stroke-width:0.15873016"
   d="M 2.6056317,26.65519 C 1.8280646,26.378051 0.81307162,25.413762 0.42900878,24.587302 0.16160351,24.011875 0.13362954,23.489283 0.13047016,19.010189 L 0.12698413,14.067997 0.57027587,13.21944 C 1.1180136,12.17095 2.0707573,11.419356 3.143846,11.18922 3.6322603,11.084473 5.9513078,11.015873 9.0038446,11.015873 h 5.0517114 l 0.09605,-0.480249 c 0.123,-0.6149969 0.753149,-1.2451462 1.368146,-1.3681456 C 15.998379,9.0717527 16,9.067746 16,7.9801587 V 6.8888889 h -5.689684 c -5.3104884,0 -5.7071928,-0.019346 -5.9523814,-0.2902764 C 4.0268679,6.232788 4.0211833,5.715778 4.3446713,5.3922903 4.5631878,5.1737737 5.3880987,5.1428571 11,5.1428571 c 5.611902,0 6.436813,0.030917 6.655329,0.2494332 0.196325,0.1963254 0.249433,0.6187727 0.249433,1.984127 0,1.7298737 0.0011,1.7346938 0.384646,1.7346938 0.526129,0 1.302152,0.688771 1.520113,1.3491959 0.149965,0.454399 0.277247,0.562766 0.764563,0.65094 1.207249,0.218437 2.314416,1.049318 2.939826,2.206213 0.331446,0.613117 0.343233,0.809354 0.343233,5.714286 0,4.901705 -0.01198,5.101573 -0.342606,5.714286 -0.448507,0.831176 -1.078312,1.413906 -1.958981,1.812554 -0.691396,0.31297 -0.996605,0.323219 -9.52381,0.319851 -7.09455,-0.0028 -8.9295571,-0.04626 -9.4261143,-0.223247 z M 12.031746,19.031746 V 14.984127 H 7.984127 3.9365079 v 4.047619 4.047619 h 4.0476191 4.047619 z m 7.817327,-2.480925 c 0.333297,-0.446768 0.285078,-0.901931 -0.140651,-1.327659 -0.192812,-0.192813 -0.7262,-0.239035 -2.758378,-0.239035 -2.42348,0 -2.528747,0.01342 -2.76644,0.352779 -0.338121,0.482734 -0.309896,1.012993 0.07437,1.397263 0.299504,0.299504 0.490869,0.318485 2.800575,0.277778 2.470194,-0.04354 2.480225,-0.04519 2.790519,-0.461126 z"
   id="path5148"
   inkscape:connector-curvature="0" /><path
   style="opacity:1;fill:#63d1bb;fill-opacity:0;stroke-width:0.15873016"
   d="M 2.6056319,26.65519 C 1.8280648,26.378051 0.81307181,25.413762 0.42900897,24.587302 0.1616037,24.011875 0.13362973,23.489283 0.13047035,19.010189 L 0.12698432,14.067997 0.57027606,13.21944 C 1.1180138,12.17095 2.0707575,11.419356 3.1438462,11.18922 3.6322605,11.084473 5.951308,11.015873 9.0038448,11.015873 h 5.0517112 l 0.09605,-0.480249 C 14.274605,9.9206271 14.904754,9.2904778 15.519751,9.1674784 15.99838,9.0717527 16,9.067746 16,7.9801587 V 6.8888889 h -5.689684 c -5.3104882,0 -5.7071926,-0.019346 -5.9523812,-0.2902764 C 4.0268681,6.232788 4.0211835,5.715778 4.3446715,5.3922903 4.563188,5.1737737 5.3880989,5.1428571 11,5.1428571 c 5.611902,0 6.436813,0.030917 6.655329,0.2494332 0.196325,0.1963254 0.249433,0.6187727 0.249433,1.984127 0,1.7298737 0.0011,1.7346938 0.384646,1.7346938 0.526129,0 1.302153,0.688771 1.520113,1.3491959 0.149965,0.454399 0.277247,0.562766 0.764563,0.65094 1.20725,0.218437 2.314416,1.049318 2.939826,2.206213 0.331446,0.613117 0.343233,0.809354 0.343233,5.714286 0,4.901705 -0.01198,5.101573 -0.342606,5.714286 -0.448507,0.831176 -1.078311,1.413906 -1.958981,1.812554 -0.691395,0.31297 -0.996605,0.323219 -9.52381,0.319851 -7.0945498,-0.0028 -8.9295569,-0.04626 -9.4261141,-0.223247 z M 12.031746,19.031746 V 14.984127 H 7.9841272 3.9365081 v 4.047619 4.047619 h 4.0476191 4.0476188 z m 7.817327,-2.480925 c 0.333297,-0.446768 0.285078,-0.901931 -0.140651,-1.327659 -0.192812,-0.192813 -0.7262,-0.239035 -2.758377,-0.239035 -2.423481,0 -2.528748,0.01342 -2.766441,0.352779 -0.33812,0.482734 -0.309895,1.012993 0.07437,1.397263 0.299504,0.299504 0.490869,0.318485 2.800575,0.277778 2.470194,-0.04354 2.480226,-0.04519 2.790519,-0.461126 z"
   id="path877"
   inkscape:connector-curvature="0" /></svg>